<?xml version="1.0" encoding="utf-8"?>
<!-- Generator: Adobe Illustrator 28.0.0, SVG Export Plug-In . SVG Version: 6.00 Build 0)  -->
<svg version="1.1" id="Слой_1" xmlns="http://www.w3.org/2000/svg" xmlns:xlink="http://www.w3.org/1999/xlink" x="0px" y="0px"
	 viewBox="0 0 384 384" style="enable-background:new 0 0 384 384;" xml:space="preserve">
<g>
	<g>
		
		<path fill="#ffc107" d="M195.75,0c0.85,0.45,1.69,0.93,2.56,1.34c5.95,2.81,9.33,7.42,9.56,14.04c0.17,4.99,0.14,10,0.04,14.99
			c-0.04,2.13,0.58,3.02,2.82,3.42c46.58,8.47,81.3,41.99,90.92,88.24c1.64,7.88,1.99,16.1,2.2,24.18
			c0.44,16.86-0.33,33.77,0.71,50.58c1.79,28.75,14.14,52.74,35.54,71.95c6.17,5.54,10.91,11.73,11.65,20.22
			c1.46,16.86-10.25,30.13-27.24,31.05c-1,0.05-2,0.04-3,0.04c-86.35,0-172.7-0.02-259.04,0.03c-9.96,0.01-18.4-3.06-24.64-11.08
			c-9.3-11.95-7.36-28.34,4.73-38.94c10.55-9.26,19.15-20.01,25.58-32.47c8.17-15.85,11.89-32.76,11.92-50.53
			c0.03-15.37-0.18-30.74,0.11-46.11c0.98-52.61,40.52-98.41,92.37-107.05c2.95-0.49,3.75-1.56,3.57-4.3
			c-0.2-2.99,0.19-6.02-0.09-8.99c-0.94-9.91,2.79-16.93,12.23-20.63C190.75,0,193.25,0,195.75,0z"/>
		<path fill="#ffa000" d="M185.25,384c-7.28-2.45-14.99-4.04-21.74-7.51c-15.71-8.08-25.34-21.4-29.85-38.44c-0.12-0.47-0.11-0.98-0.19-1.76
			c39.01,0,77.9,0,117.13,0c-1.3,7.25-4.09,13.84-8.08,19.9c-10.01,15.22-23.99,24.39-42.07,27.18c-0.59,0.09-1.13,0.42-1.7,0.64
			C194.25,384,189.75,384,185.25,384z"/>
	</g>
</g>
</svg>
