<?xml version="1.0" encoding="utf-8"?>
<!-- Generator: Adobe Illustrator 28.0.0, SVG Export Plug-In . SVG Version: 6.00 Build 0)  -->
<svg version="1.1" id="Слой_1" xmlns="http://www.w3.org/2000/svg" xmlns:xlink="http://www.w3.org/1999/xlink" x="0px" y="0px"
	 viewBox="0 0 364.88 364.98" style="enable-background:new 0 0 364.88 364.98;" xml:space="preserve">
<style type="text/css">
	.st0{fill:#F66C81;}
	.st1{fill:#424852;}
	.st2{fill:#D3E0E7;}
	.st3{fill:#434953;}
	.st4{fill:#FEFEFE;}
	.st5{fill:#D5D6D8;}
</style>
<g>
	<path class="st0" d="M16.71,31.94c17.74,1.72,38.09,3.72,58.44,5.67c14.4,1.38,28.8,2.66,43.2,4.03
		c12.29,1.17,24.58,2.29,36.84,3.65c6.39,0.71,9.17,4.98,8.1,11.36c-3.62,21.63-7.26,43.25-10.67,64.91
		c-0.88,5.59,1.05,11.13,1.5,16.71c0.39,4.71,1.27,9.38,1.86,14.08c0.57,4.52-2.23,6.62-6.43,4.74
		c-7.75-3.45-15.59-6.72-23.12-10.61c-5.2-2.69-10.24-2.96-15.87-2.1c-27.59,4.21-55.22,8.18-82.84,12.2
		c-5.19,0.76-9.46-2.32-10.2-7.54c-2.83-19.86-5.56-39.74-8.32-59.61C7.12,74.38,5.15,59.3,2.93,44.26
		C1.61,35.3,5.01,31.34,16.71,31.94z"/>
	<path class="st1" d="M245.42,25.76c-0.76-4.76-1.23-8.45-1.95-12.09c-1.3-6.52,0.96-11.48,6.14-13.14
		c5.23-1.67,9.86,0.67,12.64,6.51c4.66,9.79,9.17,19.66,13.92,29.41c2.5,5.14,2.17,10.7,2.9,16.1c0.64,4.82,1.03,9.67,1.76,14.53
		c1.67-5.35,2.85-10.78,3.53-16.31c0.69-5.57,3.15-9.96,8.24-12.59c6.49-3.36,12.39,0.12,12.37,7.38c-0.03,11.38-0.85,22.71-2.25,34
		c-1.46,11.77-3.15,23.5-4.64,35.26c-0.94,7.45,1.07,14.65,2.2,21.9c1.26,8.13,2.93,16.21,4.15,24.35
		c0.99,6.64,3.49,12.7,6.21,18.74c0.86,1.9,1.84,2.01,3.36,1.08c6.6-4.02,13.56-1.89,16.6,6.54c1.77,4.91,4.77,9.34,5.82,14.54
		c0.34,1.67,1.31,0.97,2.23,0.82c5.94-0.97,9.24,0.7,11.69,6.15c4.55,10.12,9.02,20.27,13.52,30.41c0.81,1.83,2.02,4.01-0.5,5.2
		c-2.54,1.19-3.37-1.07-4.21-2.96c-4.39-9.91-8.81-19.82-13.24-29.72c-2.07-4.62-3.47-5.17-8.13-3.1
		c-27.35,12.12-54.69,24.25-82.03,36.39c-4.55,2.02-5.05,3.45-2.95,8.19c10.1,22.79,20.21,45.58,30.31,68.37
		c0.3,0.68,0.61,1.37,0.93,2.04c0.83,1.79,1.56,3.76-0.79,4.79c-2.4,1.05-3.27-0.95-4.05-2.71c-10.52-23.7-21.05-47.38-31.53-71.1
		c-2.76-6.25-1.43-9.94,4.73-14.06c-3.94-5.98-6.5-12.63-9.03-19.24c-1.69-4.39,0.48-8.84,4.99-11.29c1.96-1.06,2.06-1.82,1-3.63
		c-2.95-5.02-6.57-9.4-11.19-12.95c-19.39-14.93-38.68-30-58.21-44.75c-7.52-5.67-11.26-12.71-10.9-22.1
		c0.19-4.99,0.03-9.99,0.04-14.99c0.01-3.64,1.28-6.73,4.65-8.36c2.32-1.12,2.55-3.55,4.04-5.18c7.99-8.78,15.74-17.76,23.68-26.58
		c7.35-8.17,16.63-9.89,26.41-4.98c9.25,4.64,18.41,9.45,27.69,14.03c10.02,4.95,14.57,13.92,17.92,23.83
		c0.52,1.55-0.03,2.72-1.55,3.31c-1.59,0.61-2.68-0.18-3.31-1.57c-0.96-2.16-1.85-4.36-2.7-6.57c-2.53-6.6-6.97-11.4-13.29-14.57
		c-8.92-4.47-17.77-9.06-26.69-13.53c-8.22-4.12-14.71-2.94-20.83,3.87c-8.09,9-16.07,18.09-24.15,27.2
		c6.41,3.23,6.4,3.22,11.68-1.26c4.67-3.96,9.3-7.96,14.05-11.82c5.48-4.46,11.94-4,16.74,1.18c4.41,4.77,8.74,9.62,13.02,14.5
		c4.02,4.6,4.21,9.01,0.64,13.93c-3.52,4.85-7.08,9.67-10.72,14.44c-3.78,4.96-8.15,6.13-13.86,3.77
		c-4.03-1.66-7.98-3.54-12.05-5.11c-6.82-2.63-11.1-7.4-12.78-14.51c-0.93-3.94-2.83-7.19-6.52-9.14c-4.26-2.26-6.76-0.82-6.81,3.97
		c-0.06,5.5-0.05,10.99,0,16.49c0.06,5.86,2.38,10.57,7.09,14.18c19.12,14.67,38.15,29.45,57.31,44.08
		c6.34,4.84,11.9,10.3,15.55,17.46c0.92,1.8,1.77,1.84,3.46,1.08c15.58-7,31.19-13.91,46.8-20.83c1.29-0.57,2.62-0.88,1.52-2.82
		c-6.52-11.49-7.38-24.47-9.7-37.06c-0.81-4.42-1.25-8.92-2.31-13.27c-2.84-11.66-0.48-23.08,1.12-34.56
		c2.35-16.95,4.35-33.93,4.52-51.08c0.01-1.37,0.24-2.9-1.17-3.71c-1.49-0.85-2.9-0.11-4.22,0.68c-2.64,1.58-4.16,3.99-4.57,6.96
		c-1.32,9.66-3.51,19.14-6.1,28.51c-1.52,5.49-1.54,10.77,0.63,16.05c0.7,1.7,1.12,3.6-1.06,4.46c-2.45,0.97-3.29-0.95-3.95-2.8
		c-5.05-14.07-10.12-28.14-15.13-42.24c-1.15-3.24-2.77-6.07-5.3-8.45c-10.73-10.1-21.4-20.28-32.1-30.43
		c-0.27-0.26-0.54-0.52-0.82-0.77c-1.91-1.71-4.03-2.2-6.05-0.41c-2.17,1.92-1.96,4.17-0.17,6.3c6.11,7.27,12.05,14.69,18.41,21.72
		c5.17,5.71,7.18,12.4,7.75,19.79c0.13,1.7-0.39,3.1-2.16,3.4c-1.81,0.31-2.73-0.84-3-2.56c-0.17-1.11-0.44-2.21-0.5-3.33
		c-0.3-5.21-2.41-9.56-5.8-13.48c-6.12-7.09-12.14-14.27-18.14-21.46c-4.15-4.97-4.19-10.24-0.26-14.06
		c3.97-3.85,9.52-3.48,14.32,1.01C235.13,15.95,239.89,20.5,245.42,25.76z"/>
	<path class="st1" d="M192.18,309.61c-7.66-1.7-14.72-3.25-21.78-4.83c-8.15-1.82-10.98-8.73-6.2-15.5
		c0.94-1.33,0.73-1.98-0.02-3.17c-2.49-3.94-2.5-8.04-0.11-12.02c0.72-1.21,1-1.82-0.17-3.07c-3.37-3.62-3.86-8.02-1.42-12.41
		c0.88-1.58,1.03-2.57,0.1-4.26c-2.94-5.32-0.55-10.62,5.36-12.22c4.57-1.24,9.17-2.39,13.8-3.38c7.25-1.56,14.16-3.9,20.5-7.83
		c1.58-0.98,3.39-1.68,4.56,0.35c1.3,2.24-0.47,3.25-2.14,4.34c-9.54,6.26-20.72,7.65-31.37,10.6c-1.2,0.33-2.42,0.6-3.64,0.87
		c-1.73,0.39-3.14,1.12-2.96,3.19c0.17,2,1.42,3.56,3.33,3.39c10.01-0.91,20.38,0.33,29.89-3.89c5.8-2.57,11.33-5.78,16.87-8.9
		c3.96-2.23,5.04-6.23,3.13-10.3c-3.12-6.67-5.16-7.94-12.51-7.41c-8.35,0.59-16.68,1.44-25.03,1.87c-2.6,0.14-3.88,1.07-4.4,3.46
		c-0.13,0.6-0.45,1.16-0.65,1.75c-0.65,1.87-1.45,3.76-3.92,2.72c-2.18-0.91-1.64-2.7-0.98-4.46c3.91-10.39,7.44-20.92,9.66-31.81
		c1.01-4.97,2.62-9.93,1.15-15.14c-1.05-3.72-2.86-6.9-5.8-9.4c-2.89-2.46-4.03-2.22-5.53,1.24c-5.53,12.68-11.08,25.36-16.47,38.1
		c-2.78,6.57-6.75,12.12-12.1,16.87c-8.54,7.58-16.12,16.13-22.47,25.55c-7.58,11.24-18.89,13.39-30.97,14.35
		c-1.53,0.12-2.74-0.5-2.9-2.22c-0.15-1.67,0.84-2.59,2.36-2.84c3.94-0.65,7.9-1.17,11.84-1.82c5.41-0.89,9.85-3.54,13.15-7.9
		c8.68-11.48,17.89-22.46,28.65-32.1c3.4-3.04,5.46-7.06,7.25-11.24c5.5-12.83,11.06-25.64,16.63-38.44
		c3.2-7.35,8.53-8.61,14.37-3.19c6.19,5.74,8.78,12.87,7.45,21.31c-1.4,8.89-3.55,17.6-6.39,26.13c-0.98,2.94-1.21,4.12,2.73,3.7
		c8.69-0.92,17.43-1.59,26.16-1.79c9.89-0.22,17.9,12.84,13.73,21.8c-1.75,3.77-5.08,5.7-8.83,7.63c6.87,5.57,5.32,12.94,4.55,20.04
		c-0.29,2.71-2.08,4.84-4.4,6.24c-1.53,0.92-1.96,1.48-1.01,3.36c3.12,6.19,1.62,12.03-4.11,16.09c-1.66,1.18-1.51,1.97-0.92,3.58
		c2.6,7.15-1.79,13.77-9.41,14.41c-1.1,0.09-2.15-0.09-3.09,0.88c-6.71,6.97-15.5,8.72-24.59,9.32c-8.37,0.55-16.77,0.34-25-1.36
		c-8.36-1.73-16.41,0.09-24.47,1.56c-10.08,1.84-19.85,4.84-29.31,8.83c-1.96,0.83-2.86,1.66-2.6,4.07
		c0.68,6.15-2.11,9.76-8.11,10.96c-5.26,1.04-10.47,2.41-15.85,2.66c-1.43,0.07-1.5,0.48-1.63,1.65c-0.64,6.11-2.62,8.37-8.58,9.55
		c-9.79,1.93-19.61,3.72-29.42,5.56c-0.37,0.07-0.75,0.08-1.12,0.14c-1.74,0.3-3.47,0.21-3.85-1.88c-0.42-2.31,1.37-2.98,3.18-3.32
		c6.99-1.32,13.98-2.6,20.97-3.9c3.19-0.59,6.38-1.19,9.57-1.78c3.15-0.58,4.5-2.36,3.89-5.59c-5.27-27.95-10.5-55.9-15.79-83.84
		c-0.75-3.95-2.25-4.73-6.93-3.86c-11.03,2.07-22.06,4.19-33.09,6.28c-0.25,0.05-0.48,0.13-0.73,0.16
		c-1.79,0.26-3.72,0.52-4.17-1.88c-0.42-2.29,1.17-2.94,3.1-3.3c7.85-1.44,15.69-2.94,23.54-4.43c3.8-0.72,7.58-1.54,11.4-2.16
		c5.96-0.97,8.81,0.45,11.41,5.92c0.62,1.3,0.94,1.24,2.11,0.86c5.59-1.85,11.43-2.57,17.2-3.51c4.89-0.8,9.13,2.45,10.19,7.8
		c3.06,15.54,5.94,31.12,8.89,46.69c0.65,3.43,1.45,6.84,1.9,10.3c0.33,2.5,1.17,2.64,3.33,1.71c10.12-4.34,20.67-7.3,31.58-9.28
		c-0.56-1.17-1.71-1.06-2.64-1.34c-3.82-1.14-7.66-2.24-11.48-3.38c-1.93-0.58-4.25-1.1-3.29-3.89c0.86-2.51,2.86-1.7,4.71-1.12
		c10.72,3.34,21.57,6.2,32.67,7.99c12.5,2.02,25.02,3.37,37.57,0.45C185.75,313.75,189.15,312.61,192.18,309.61z"/>
	<path class="st2" d="M292.39,235.76c2.73,0.03,3.87,1.37,3.54,3.8c-0.36,2.66-1.26,4.93-3.91,6.39c-4.9,2.71-9.62,5.76-14.45,8.58
		c-2.33,1.36-3.3,3.24-2.96,5.9c0.73,5.78,1.41,11.57,2.1,17.35c0.1,0.87,0.09,1.74,0.15,2.61c0.12,1.94-0.46,3.53-2.52,4.02
		c-2.2,0.52-3.56-0.64-4.41-2.56c-2.94-6.73-5.87-13.47-8.82-20.2c-0.95-2.17-1.88-4.35-2.94-6.47c-1.36-2.73-0.37-4.68,2.11-5.79
		c10.12-4.52,20.3-8.92,30.47-13.34C291.31,235.81,291.97,235.83,292.39,235.76z"/>
	<path class="st2" d="M26.46,350.57c0.22-3.23,0.92-6.01,4.55-7.29c2.57-0.91,4.98-2.31,7.34-3.7c4.8-2.83,4.97-4.27,4.41-9.76
		c-0.95-9.4-1.53-18.85-1.34-28.31c0.03-1.61,0.66-2.64,2.4-2.71c2.08-0.08,3.24,0.94,3.6,2.98c1.21,6.84,2.47,13.66,3.67,20.5
		c1.35,7.7,2.56,15.42,4.05,23.09c0.53,2.71-0.41,4.04-2.88,4.63c-7.01,1.66-14,3.41-21.03,4.92
		C27.92,355.63,26.36,354.03,26.46,350.57z"/>
	<path class="st3" d="M350.21,257.3c-1.59-0.21-2.39-1.02-2.94-2.27c-4.48-10.15-8.98-20.28-13.49-30.41
		c-0.76-1.71-0.75-3.23,1.19-4.05c1.79-0.76,2.84,0.32,3.51,1.82c4.57,10.24,9.12,20.49,13.67,30.74
		C353.16,255.41,352.16,256.64,350.21,257.3z"/>
	<path class="st3" d="M32.65,273.6c1.34,0,2.56,0.49,2.82,2.16c0.33,2.17-1.17,2.83-2.87,3.16c-8.57,1.64-17.14,3.24-25.71,4.86
		c-1.1,0.21-2.19,0.47-3.3,0.65c-1.63,0.26-3.11-0.03-3.49-1.9c-0.41-2,0.72-2.95,2.63-3.3c7.84-1.45,15.67-2.96,23.51-4.44
		C28.3,274.39,30.38,274.02,32.65,273.6z"/>
	<path class="st4" d="M82.99,101.8c-6.61-0.01-11.6-5.01-11.59-11.61c0.01-6.36,5.37-11.74,11.68-11.72
		c6.3,0.02,11.62,5.43,11.62,11.8C94.69,96.81,89.61,101.81,82.99,101.8z"/>
	<path class="st4" d="M42.19,101.79c-6.4,0-11.86-5.36-11.79-11.58c0.07-6.22,5.63-11.76,11.8-11.75
		c6.19,0.01,11.73,5.53,11.79,11.75C54.05,96.44,48.59,101.79,42.19,101.79z"/>
	<path class="st4" d="M123.78,101.79c-6.37-0.04-11.84-5.51-11.68-11.68c0.16-6.25,5.74-11.71,11.9-11.64
		c6.19,0.06,11.82,5.78,11.66,11.85C135.48,96.77,130.24,101.84,123.78,101.79z"/>
	<path class="st4" d="M217.62,133.19c-1.3,0.13-2.44-0.39-3.58-0.89c-3.89-1.67-7.72-3.49-11.68-4.98
		c-5.09-1.91-7.61-5.63-9.68-10.57c-2.29-5.49-1.02-8.59,3.61-11.78c4.7-3.24,8.8-7.36,13.23-11c3.93-3.22,7.02-3,10.43,0.72
		c4.22,4.6,8.32,9.3,12.52,13.91c2.17,2.39,2.41,4.76,0.43,7.38c-3.6,4.78-7.14,9.61-10.71,14.41
		C221.05,131.96,219.76,133.29,217.62,133.19z"/>
	<path class="st4" d="M273.91,65.58c-0.11-0.23-0.23-0.44-0.32-0.68c-8.29-21.81-3.3-15.65-21.44-32.72
		c-0.93-0.88-1.65-1.71-1.64-3.15c0.04-5.89-0.91-11.67-2.09-17.43c-0.55-2.67-0.12-5.11,2.92-6.02c2.7-0.81,4.62,0.4,5.78,2.84
		c5.01,10.58,10.59,20.95,14.78,31.85c2.74,7.15,2.16,15.23,2.81,22.93C274.78,64.11,275.72,65.31,273.91,65.58z"/>
	<path class="st4" d="M317.8,211.88c0.81-5.02-1.51-7.96-5.08-10.33c-5.38-3.58-11.25-5.58-17.91-6.34
		c3.21-1.45,6.41-2.91,9.62-4.35c4.54-2.03,9.09-4.02,13.62-6.05c2.9-1.3,5.23-0.53,6.56,2.25c2.2,4.59,4.25,9.26,6.18,13.97
		c1.11,2.71,0.16,4.92-2.52,6.17C325.02,208.73,321.71,210.14,317.8,211.88z"/>
	<path class="st5" d="M273.91,65.58c0.89-0.58,0.46-1.61,0.8-2.37c0.82,1.58,0.68,3.27,0.58,5.09
		C274.12,67.66,274,66.63,273.91,65.58z"/>
	<path class="st4" d="M190.67,269.33c-6.61-0.34-13.22-0.7-19.83-1c-2.76-0.13-4.65-1.13-4.47-4.23c0.16-2.94,1.32-4.93,4.72-5.11
		c5.74-0.3,11.45-0.97,17.19-1.21c6.52-0.28,12.45-2.2,18.13-5.3c5.39-2.94,9.34-0.5,9.52,5.67c0.35,11.6-0.84,12.68-12.53,11.79
		C199.16,269.6,194.91,269.52,190.67,269.33z"/>
	<path class="st4" d="M179.04,274.02c8.35,0.48,16.7,0.92,25.05,1.44c4.59,0.29,7.72,3.58,7.43,7.69c-0.3,4.2-3.65,7.17-8.3,6.68
		c-10.17-1.08-20.32-2.4-30.45-3.79c-3.23-0.44-5.37-3.38-5.17-6.35c0.21-3.27,2.72-5.64,6.21-5.77c1.74-0.07,3.49-0.01,5.24-0.01
		C179.04,273.94,179.04,273.98,179.04,274.02z"/>
	<path class="st4" d="M78.33,290.63c-9.98-10.36-17.88-14.09-25.15-12.2c-0.13-0.21-0.33-0.4-0.37-0.63
		c-2.2-10.76-2.12-10.7,8-12.43c2.45-0.42,4.92-0.79,7.35-1.35c3.42-0.78,5.28,0.68,5.91,3.93
		C75.47,275.27,76.83,282.61,78.33,290.63z"/>
	<path class="st4" d="M199.05,305.75c-9.3-2.06-19.16-4.19-28.98-6.48c-2.21-0.52-3.23-2.33-2.81-4.62
		c0.42-2.31,2.04-3.55,4.29-3.29c10.02,1.17,20.05,2.33,30.03,3.84c3.08,0.46,4.58,3.03,4.01,6.19
		C205.02,304.6,202.78,305.9,199.05,305.75z"/>
</g>
</svg>
