<?xml version="1.0" encoding="utf-8"?>
<!-- Generator: Adobe Illustrator 28.0.0, SVG Export Plug-In . SVG Version: 6.00 Build 0)  -->
<svg version="1.1" id="Слой_1" xmlns="http://www.w3.org/2000/svg" xmlns:xlink="http://www.w3.org/1999/xlink" x="0px" y="0px"
	 viewBox="0 0 384 384" style="enable-background:new 0 0 384 384;" xml:space="preserve">
<g>
	<g>
		
		<path d="M144.03,275.37c-1.88,1.05-3.26,1.8-4.62,2.59c-19.99,11.58-40.18,22.83-59.91,34.84c-25.43,15.48-56-3.23-55.63-32
			c0.48-37.24,0.1-74.5,0.13-111.74c0.01-9.46,8.06-15.47,16.32-12.27c4.72,1.83,7.64,6.21,7.66,11.79
			c0.05,10.62,0.01,21.25,0.01,31.87c0,26.62-0.01,53.25,0,79.87c0.01,12.13,9.27,17.51,19.81,11.41
			c50.91-29.46,101.81-58.94,152.69-88.44c10.31-5.98,10.31-16.68-0.01-22.66C169.6,151.14,118.71,121.66,67.8,92.2
			c-10.15-5.87-18.69-1.4-19.84,10.29c-0.64,6.52-6.02,11.29-12.43,11.04c-6.43-0.26-11.59-5.39-11.49-11.96
			c0.2-13.23,5.85-23.72,17.16-30.6c11.96-7.27,24.49-7.46,36.69-0.56c19.56,11.07,38.94,22.47,58.39,33.73
			c32.42,18.77,64.89,37.45,97.24,56.34c22.52,13.15,25.12,43.4,5.1,59.42c-4.35,3.48-9.44,6.06-14.29,8.89
			c-17.8,10.38-35.62,20.73-53.5,30.96c-2.14,1.22-2.96,2.53-2.86,4.98c0.21,4.87,0.21,9.75,0.02,14.62
			c-0.21,5.48,0.95,10.26,6.01,13.2c5.21,3.03,9.94,1.38,14.77-1.44c26.54-15.47,53.13-30.85,79.81-46.08
			c2.57-1.47,5.86-2.46,8.79-2.38c5.29,0.14,9.28,4.16,10.45,9.25c1.11,4.84-1.03,10.03-5.71,12.82
			c-9.11,5.44-18.34,10.7-27.52,16.02c-18.36,10.65-36.7,21.34-55.1,31.94c-26.05,15.01-55.42-1.93-55.47-31.95
			C144.03,279.16,144.03,277.57,144.03,275.37z"/>
		<path d="M372.27,191.37c-0.66,14.03-5.86,24.46-16.9,31.26c-12.22,7.53-24.73,14.6-37.21,21.7c-6.13,3.49-13.19,1.43-16.55-4.45
			c-3.39-5.93-1.6-12.84,4.55-16.51c11.37-6.77,22.85-13.36,34.26-20.06c10.3-6.05,10.34-16.69,0.05-22.66
			c-50.88-29.49-101.77-58.96-152.66-88.43c-5.9-3.42-8.54-8.08-7.57-13.34c1.58-8.62,10.61-12.65,18.58-8.09
			c15.5,8.86,30.92,17.86,46.37,26.8c35.33,20.46,70.67,40.9,105.97,61.42c9.47,5.5,16.89,12.87,19.65,23.91
			C371.6,186.05,371.92,189.29,372.27,191.37z"/>
	</g>
</g>
</svg>
