<?xml version="1.0" encoding="utf-8"?>
<!-- Generator: Adobe Illustrator 28.0.0, SVG Export Plug-In . SVG Version: 6.00 Build 0)  -->
<svg version="1.1" id="Слой_1" xmlns="http://www.w3.org/2000/svg" xmlns:xlink="http://www.w3.org/1999/xlink" x="0px" y="0px"
	 viewBox="0 0 294.24 328.48" style="enable-background:new 0 0 294.24 328.48;" xml:space="preserve">
<style type="text/css">
	.st0{fill:#FE5F6E;}
	.st1{fill:#3A96D3;}
	.st2{fill:#5BD8C2;}
	.st3{fill:#FEC272;}
	.st4{fill:#010101;}
	.st5{fill:#FEFEFE;}
	.st6{fill:#040102;}
	.st7{fill:#010203;}
	.st8{fill:#FDFEFE;}
</style>
<g>
	<path class="st0" d="M204.89,1.46c16.27,4.98,31.65,12.05,46.62,20.05c13.34,7.12,25.9,15.45,38.14,24.33
		c4.17,3.02,5.22,6.56,4.27,11.33c-3.54,17.84-6.98,35.7-10.45,53.55c-3.98,20.42-7.95,40.84-11.94,61.25
		c-0.11,0.58-0.46,1.12-0.7,1.68c-5.28-2.01-9.8-5.38-14.65-8.15c-19.51-11.15-38.97-22.4-58.38-33.73c-4.31-2.52-8.7-4.91-13-7.45
		c-4.93-2.91-5.36-3.58-4.15-9.36c3.58-17.11,7.31-34.19,10.86-51.31c4.21-20.3,8.95-40.48,12.73-60.86
		C204.33,2.26,204.52,1.82,204.89,1.46z"/>
	<path class="st0" d="M114.2,327.73c-17.38-5.45-34.2-12.35-50.85-19.68c-17.02-7.5-33.48-16.09-49.39-25.74
		c-3.33-2.02-4.9-4.53-5.02-8.46c-0.64-20.57-1.62-41.14-3.62-61.63c-1.16-11.91-2.75-23.77-4.11-35.66
		c-0.2-1.73-0.22-3.47-0.32-5.21c1.61-0.51,2.93,0.36,4.27,0.97c19.77,9.02,39.45,18.22,59.42,26.78
		c11.94,5.12,23.95,10.07,36.01,14.88c5.36,2.14,5.41,2.53,5.64,8.28c0.61,15.08,1.19,30.15,2.13,45.22
		c1.14,18.32,2.58,36.59,5.29,54.75C113.93,324.04,114.9,325.81,114.2,327.73z"/>
	<path class="st1" d="M200.99,189.02c0.57,19.84,0.34,39.75,2.04,59.49c0.94,10.9-2.88,16.92-11.51,22.62
		c-23.45,15.48-45.31,33.13-66.97,51.02c-1.44,1.19-2.95,2.29-4.42,3.43c-1.49-1.25-1.56-3.05-1.82-4.76
		c-2.23-14.41-3.56-28.92-4.54-43.47c-1.05-15.53-2.22-31.05-2.27-46.64c-0.01-2.6-0.49-5.2-0.73-7.81
		c-0.42-4.56,1.34-7.43,5.28-9.72c7.11-4.13,13.91-8.79,20.79-13.3c7.83-5.13,15.31-10.74,22.9-16.2c1.31-0.94,2.51-2.06,4.06-2.64
		c4,0.11,7.22,1.86,9.94,4.69c-0.83,4.01-0.68,7.78,2.04,11.23c4.29,5.43,10.41,5.07,13.96-0.86c1.21-2.02,1.19-4.62,3.09-6.29
		C195.47,188.73,198.08,187.34,200.99,189.02z"/>
	<path class="st1" d="M96.19,109.72c5.23-22.83,10.74-45.59,17.17-68.12c0.86-2.99,1.83-5.97,2.5-9c1.68-7.58,6.49-12.05,13.64-14.5
		c12.04-4.12,24.36-7.2,36.74-10.07c10.8-2.5,21.54-5.24,32.32-7.85c0.59-0.14,1.23-0.07,1.84-0.1c-2.31,9.16-4.1,18.44-6.09,27.68
		c-5.92,27.56-11.71,55.16-17.6,82.73c-2.37,11.1-0.89,9.59-11.81,11.41c-21.66,3.6-43.23,7.66-64.55,12.97
		c-3.14,0.78-6.06,2.29-9.33,2.61c-0.57-0.39-0.78-0.98-0.88-1.63c0.56-5.33,1.93-10.5,2.99-15.74
		C94.22,116.67,93.55,112.71,96.19,109.72z"/>
	<path class="st2" d="M96.19,109.72c-0.74,3.43-1.48,6.87-2.22,10.3c-0.95,1.02-2.25,0.91-3.47,1.09c-3.03,0.44-5.71,1.72-8.08,3.59
		c-3.22,2.54-3,5.4,0.27,7.95c2.46,1.92,5.75,1.48,8.22,3.22c0.04,0.49,0.07,0.99,0.11,1.48c0.97,1.86,1.51,4.09,3.98,4.68
		c16.79,9.81,33.65,19.47,50.76,28.71c2.85,1.54,5.79,2.91,8.66,4.42c1.3,0.69,2.81,1.13,3.43,2.7c-0.25,1.7-1.71,2.39-2.87,3.27
		c-13.89,10.42-28.44,19.85-43.13,29.08c-2.26,1.42-4.4,1.32-6.75,0.39c-17.42-6.85-34.66-14.15-51.77-21.72
		c-15.63-6.91-31.18-14-46.59-21.41c-1.15-0.56-2.78-0.66-3-2.43c7.39-4.86,14.77-9.72,22.16-14.58
		c18.47-12.13,37.29-23.73,55.28-36.57C85.81,110.58,90.56,108.86,96.19,109.72z"/>
	<path class="st3" d="M157.53,177.92c-20.59-10.83-41.03-21.93-60.92-34.02c-0.63-0.38-1.19-0.87-1.79-1.3
		c0.64-1.95,2.49-1.89,3.98-2.28c24.52-6.48,49.48-10.83,74.48-14.9c2.1-0.34,3.91,0.09,5.71,1.14
		c26.41,15.4,52.99,30.5,79.33,46.04c2.35,1.39,5.58,1.84,6.57,5.06c-20.34,4.4-41.01,6.85-61.47,10.61
		c-0.86,0.16-1.75,0.11-2.45,0.76c-2.87,0.05-5.63,0.73-8.38,1.5c-3.2,1.9-6.52,1.07-9.75,0.22c-3.46-0.91-7-1.85-9.45-4.82
		c-2.89-1.78-5.9-3.33-9.11-4.47C161.7,180.96,159.28,180.09,157.53,177.92z"/>
	<path d="M264.9,177.65c-16.56-9.66-33.1-19.35-49.67-28.98c-12.28-7.14-24.61-14.19-36.9-21.31c-1.31-0.76-2.5-1.46-4.16-1.18
		c-25.19,4.24-50.35,8.6-75.11,15.01c-1.44,0.37-2.83,0.93-4.24,1.41c-3.21-0.33-4.42-2.12-3.81-5.23c2.7-2.57,6.34-2.8,9.65-3.63
		c22.86-5.76,46.03-10.01,69.31-13.68c2.65-0.42,3.95-1.27,4.56-4.18c7.74-36.97,15.66-73.9,23.48-110.86
		c0.4-1.89,0.9-3.61,2.38-4.92c1.72-0.28,3.24,0.1,4.49,1.37c0.6,1.74,0.2,3.46-0.16,5.16c-7.83,36.82-15.66,73.65-23.58,110.45
		c-0.55,2.58-0.16,3.98,2.28,5.38c27.69,15.88,55.3,31.9,82.95,47.86c1.62,0.94,3.22,1.88,4.44,3.34
		C270.39,177.83,269.13,178.68,264.9,177.65z"/>
	<path d="M157.53,177.92c2.35,1.01,4.71,1.99,6.78,3.53c-15.75,12.29-32.47,23.16-49.4,33.72c-2.33,1.45-3.09,2.96-2.99,5.65
		c1.12,30.29,2.41,60.57,6.04,90.7c0.57,4.7,1.44,9.36,2.16,14.04c-1.35,2.45-3.07,3.86-5.93,2.16c-2.28-4.73-2.32-9.93-2.94-14.96
		c-3.79-30.77-5.22-61.71-6.01-92.68c-0.07-2.68-1.12-3.59-3.31-4.45C67.69,202.17,34.17,187.05,0.9,171.35
		c-1.6-4.03-1.28-4.74,2.84-6.31c33.74,16.1,67.87,31.3,102.65,45.02c1.65,0.65,2.94,0.69,4.5-0.32
		C126.7,199.54,142.69,189.57,157.53,177.92z"/>
	<path class="st4" d="M70.79,89.07c-1.35-0.11-2.32-0.82-3.22-1.74c-10.08-10.21-19.22-21.2-27.45-32.96
		c-1.38-1.98-1.73-3.98,0.54-5.5c2.15-1.44,3.78-0.28,5.04,1.52c8.09,11.55,17.07,22.35,27.01,32.36c1.23,1.24,1.86,2.62,1.04,4.37
		C73.13,88.4,72.03,88.84,70.79,89.07z"/>
	<path class="st4" d="M39.82,89.09c9.32-0.07,17.97,2.34,25.97,7.07c2.09,1.23,4.39,2.61,2.7,5.53c-1.65,2.84-3.83,1.81-6.06,0.48
		c-9.84-5.9-20.45-7.58-31.65-5.28c-2.58,0.53-5.01,0.76-5.67-2.32c-0.68-3.17,1.89-3.91,4.31-4.44
		C32.84,89.36,36.32,89.09,39.82,89.09z"/>
	<path class="st4" d="M88.77,46.02c-0.2,0.54-0.48,1.35-0.8,2.16c-4.19,10.64-4.39,21.34-0.37,32.06c0.9,2.39,1.6,4.83-1.42,5.94
		c-2.99,1.1-4.17-1.16-5.04-3.56c-4.62-12.73-4.34-25.35,0.84-37.86c0.8-1.93,2.07-3.18,4.29-2.66
		C88.11,42.52,88.88,43.85,88.77,46.02z"/>
	<path class="st5" d="M259.05,85.55c-0.07,11.71-3.45,17.3-9.61,19.07c-2.22,0.64-4.45,0.65-6.65,0.22
		c-8.46-1.66-16.64-10.61-17.71-19.2c-0.84-6.7,1.24-12.04,7.17-15.57c6.11-3.64,12.23-3.06,17.98,0.64
		C256.64,74.85,259.04,81.22,259.05,85.55z"/>
	<path class="st5" d="M42.94,245.12c0.06-7.74,4.01-10.95,10.71-9.67c9.08,1.74,14.85,9.34,13.33,17.63
		c-0.83,4.54-3.46,7.83-7.77,9.23c-4.12,1.34-7.49-0.59-10.27-3.67C45.21,254.51,43.24,249.67,42.94,245.12z"/>
	<path class="st5" d="M95.51,233.95c-0.05,0.51-0.04,1.79-0.33,2.99c-1.74,7.29-7.52,9.21-13.16,4.29
		c-5.03-4.39-8.32-9.97-9.67-16.5c-1.51-7.32,2.99-11.09,10.04-8.67C90.77,218.93,95.54,225.18,95.51,233.95z"/>
	<path class="st5" d="M17.78,262.38c0.27-6.41,5.09-10.18,10.95-8.9c6.2,1.35,11.93,8.07,11.98,14.11c0.04,4.42-2.11,7.65-5.9,9.64
		c-3.66,1.92-7.02,0.66-10-1.76C20.55,272.01,18.1,267.57,17.78,262.38z"/>
	<path class="st6" d="M100.75,310.11c0.01,1.2,0.44,2.71-1.39,2.9c-1.5,0.16-1.74-1.05-1.89-2.23c-1.12-8.51-2.27-17.03-3.39-25.54
		c-0.16-1.2,0.02-2.36,1.51-2.51c1.49-0.14,1.85,1.01,2,2.18C98.65,293.31,99.69,301.71,100.75,310.11z"/>
	<path class="st5" d="M154.11,273.62c-0.46,7.83-3.92,14.06-10.36,18.49c-2.76,1.9-5.98,2.93-9.09,0.83
		c-3.04-2.06-3.11-5.48-2.3-8.48c1.86-6.86,5.68-12.69,10.9-17.5c2.09-1.93,4.77-2.32,7.32-1.04
		C153.68,267.47,154.15,270.47,154.11,273.62z"/>
	<path class="st5" d="M176.45,230.58c-0.02,4.04-1.7,7.47-4.12,10.56c-2.96,3.78-6.99,5.09-10.44,3.55
		c-3.67-1.64-6.18-6.24-5.57-10.5c0.46-3.22,1.52-6.26,3.41-8.97c2.96-4.25,6.52-5.87,10.4-4.65
		C173.92,221.78,176.46,225.81,176.45,230.58z"/>
	<path class="st5" d="M173.42,185.93c6.07,2.9,12.24,5.38,19.19,4.59c-0.4,2.73-1.21,5.29-2.91,7.53c-3.62,4.78-8.71,5.26-13.12,1.2
		C172.33,195.33,171.3,191.01,173.42,185.93z"/>
	<path class="st7" d="M124.1,236.68c-0.45,7,0.23,13.93,1.25,20.84c0.19,1.31,1.07,3.36-1.15,3.69c-2.22,0.33-1.99-1.89-2.19-3.2
		c-1.6-10.37-2.36-20.79-1.21-31.27c0.14-1.32,0.28-2.68,2.02-2.46c1.55,0.2,1.27,1.59,1.27,2.68
		C124.1,230.2,124.1,233.44,124.1,236.68z"/>
	<path class="st5" d="M180.92,34.82c0.17,2.46-0.41,4.73-1.61,6.83c-2.24,3.92-5.29,6.73-10.12,6.35c-4.86-0.38-7.39-3.7-8.84-7.97
		c-1.66-4.92-1.55-9.81,0.8-14.5c1.79-3.58,4.73-5.78,8.82-5.96c3.95-0.17,6.49,2.17,8.35,5.32
		C180.12,27.94,181.14,31.25,180.92,34.82z"/>
	<path class="st5" d="M169.68,91.8c-0.56,4.82-3.22,9.84-7.53,13.83c-2.38,2.21-5.6,2.64-8.23,0.38c-4.44-3.81-5.77-8.97-4.67-14.55
		c1.04-5.33,4.9-8.36,9.92-9.56C165.26,80.44,169.68,84.31,169.68,91.8z"/>
	<path class="st5" d="M131.34,100.94c-0.31,4.48-1.61,8.23-5.01,11.07c-1.92,1.6-4.04,2.34-6.53,2.18c-3.79-0.25-6.94-2.81-8.4-6.91
		c-1.89-5.34-0.71-11.71,3.08-14.82c3.21-2.63,6.97-4.12,11.06-2.21C130.09,92.37,130.98,96.68,131.34,100.94z"/>
	<path class="st5" d="M141.08,42.71c0.08,3.81-0.63,6.55-2.18,9.05c-2.58,4.16-6.51,5.84-10.41,4.45c-4.29-1.52-7.36-6.53-6.6-11
		c0.51-2.97,1.58-5.76,3.38-8.22c2.19-2.97,4.89-5.19,8.81-4.44c3.89,0.74,5.75,3.65,6.52,7.34
		C140.86,41.11,141.02,42.34,141.08,42.71z"/>
	<path class="st8" d="M90.91,135.88c-3.35,0.23-6.4-0.64-9.09-2.62c-3.82-2.81-3.95-6.29-0.25-9.19c3.61-2.83,7.67-4.54,12.4-4.04
		C92.95,125.31,91.93,130.59,90.91,135.88z"/>
	<path class="st5" d="M105.15,193.56c-4.21-0.16-8.07-1.46-11.47-3.93c-5.73-4.18-5.04-11.59,1.52-14.27
		c5.85-2.39,11.99-2.33,17.82,0.15c5.72,2.43,6.74,9.42,2.2,13.93C112.47,192.16,109.16,193.76,105.15,193.56z"/>
	<path class="st5" d="M77.79,161.93c6.61,0,10.26,3.1,10.25,8.71c-0.02,6.74-5.99,12.42-12.95,12.32
		c-5.86-0.08-11.17-5.45-11.24-11.36C63.78,165.72,69.23,161.94,77.79,161.93z"/>
	<path class="st5" d="M49.22,149.92c6.37-0.02,10.33,1.98,11.37,5.5c0.91,3.08-1.56,7.25-6.24,10.19c-4.25,2.67-8.75,4.28-13.81,2.3
		c-3.66-1.43-6.53-5.04-6.4-8.47c0.14-3.78,2.43-6.11,5.76-7.58C43.04,150.47,46.3,149.81,49.22,149.92z"/>
	<path class="st5" d="M179.4,134.95c7,0.09,12.7,5.06,12.69,11.04c-0.01,5.42-5.47,10.69-10.97,10.59
		c-6.21-0.11-11.51-5.74-11.32-12.02C169.98,138.76,173.85,134.88,179.4,134.95z"/>
	<path class="st5" d="M187.19,181.69c-3.71-0.07-7.29-0.95-10.28-3.5c-3.37-2.87-3.35-6.69,0.41-8.98
		c5.08-3.09,10.61-3.59,16.11-1.15c2.89,1.28,4.16,3.86,3.93,7.05c-0.22,3.1-2.02,4.93-4.87,5.97
		C190.79,181.69,189.06,181.6,187.19,181.69z"/>
</g>
</svg>
