<?xml version="1.0" encoding="utf-8"?>
<!-- Generator: Adobe Illustrator 28.0.0, SVG Export Plug-In . SVG Version: 6.00 Build 0)  -->
<svg version="1.1" id="Слой_1" xmlns="http://www.w3.org/2000/svg" xmlns:xlink="http://www.w3.org/1999/xlink" x="0px" y="0px"
	 viewBox="0 0 384 384" style="enable-background:new 0 0 384 384;" xml:space="preserve">
<style type="text/css">
	.st0{fill:#FC5426;}
	.st1{fill:#0182FB;}
	.st2{fill:#0592FB;}
	.st3{fill:#229FFB;}
	.st4{fill:#7EC7FD;}
	.st5{fill:#52AEFC;}
	.st6{fill:#EDF4F5;}
	.st7{fill:#00F1A5;}
	.st8{fill:#DDEBF0;}
	.st9{fill:#CAE4E7;}
	.st10{fill:#7CA0B0;}
	.st11{fill:#7CA1B1;}
	.st12{fill:#7DA1B1;}
	.st13{fill:#7CA1B0;}
	.st14{fill:#FD7D43;}
	.st15{fill:#8EB9C4;}
	.st16{fill:#8EBAC5;}
	.st17{fill:#60B6FE;}
	.st18{fill:#FCFCFD;}
	.st19{fill:#8EBAC4;}
	.st20{fill:#8DB9C4;}
	.st21{fill:#A5E6EF;}
	.st22{fill:#6BD8E6;}
	.st23{fill:#FEFEFE;}
</style>
<g>
	<path class="st0" d="M6.69,330.03c-3.34,0.11-4.74-2.57-6.62-4.58c0-78.72,0-157.44,0-236.16c2.2-4.34,5.83-5.78,10.5-5.26
		c1.47,0.17,2.98,0.04,4.47,0.05c1.79,2.02,1.21,4.51,1.21,6.81c0.04,48.97,0.03,97.93,0.03,146.9c0,19.99,0,39.97,0,59.96
		c0,1.62-0.02,3.25,0.15,4.87c0.27,2.65,1.74,4.02,4.36,4.26c2.74,0.25,5.5-0.05,8.24,0.22c2.41,0.05,4.89-0.51,7.13,0.86
		c1.83,3,0.94,6.33,1.01,9.51c0.08,3.79,0.04,7.48,2.74,10.6c1.05,1.21,1.05,2.29-1.06,2.25C28.13,330.14,17.41,330.66,6.69,330.03z
		"/>
	<path class="st1" d="M383.93,212.25c-1.47,1.23-0.52,2.9-0.8,4.35c-1.6,1.34-2.55-0.14-3.4-0.98
		c-13.88-13.77-27.71-27.58-41.48-41.45c-1.34-1.35-2.2-3-2.84-4.78c-0.38-2.39,0.58-4.32,2.09-6.06c2.61-2.54,5.19-5.13,7.74-7.73
		c2.38-2.29,4.69-4.66,7.01-7.01c3.96-2.64,6.98-2.59,10.43,0.4c1.76,1.52,3.68,2.98,4.54,5.3c0.3,1.71-0.76,2.81-1.8,3.89
		c-1.99,2.06-4.06,4.04-6.06,6.1c-3.88,4-3.93,5.8-0.05,9.72c7.1,7.17,14.23,14.3,21.41,21.39c1.44,1.43,2.59,2.96,3.21,4.89
		c0,2.5,0,5,0,7.5c-0.47,0.5-0.47,1,0,1.5C383.93,210.25,383.93,211.25,383.93,212.25z"/>
	<path class="st2" d="M383.93,200.25c-8.39-8.52-16.78-17.05-25.19-25.55c-4.5-4.56-4.4-6.5,0.06-11.24
		c2.69-2.86,6.26-4.97,7.86-8.81c0.31-0.29,0.72-0.33,0.98-0.06c4.65,4.98,10.03,9.27,14.09,14.81c1.41,3.91,0.42,8.26,2.21,12.11
		c0,1,0,2,0,3c-0.47,0.5-0.47,1,0,1.5c0,0.75,0,1.5,0,2.25c-0.63,2-0.63,4,0,6C383.93,196.25,383.93,198.25,383.93,200.25z"/>
	<path class="st3" d="M383.93,194.25c-1.13-2-1.19-4,0-6C383.93,190.26,383.93,192.26,383.93,194.25z"/>
	<path class="st4" d="M383.93,186.01c-0.83-0.5-0.92-1,0-1.5C383.93,185.01,383.93,185.51,383.93,186.01z"/>
	<path class="st5" d="M383.93,209.25c-0.88-0.5-0.77-1,0-1.5C383.93,208.25,383.93,208.75,383.93,209.25z"/>
	<path class="st2" d="M227.52,15.02c8.5-4.48,17.22-8.2,26.8-9.96c38.65-7.13,77.73,19.25,85.34,57.81
		c0.94,4.77,1.49,9.59,1.66,14.46c2.01,13.83-2.62,26.11-8.95,37.97c-1.29,2.41-2.85,4.66-4.43,6.88c-2.29,3.04-4.78,5.93-7.27,8.81
		c-3.02,2.87-6.31,5.42-9.51,8.08c-22.88,15.79-47.27,18.49-73.14,8.5c-5.16-1.99-9.8-4.88-14.35-7.94
		c-6.68-5.07-12.75-10.75-17.65-17.61c-2.1-2.94-4.16-5.89-5.03-9.47c-6.56-13.5-9.14-27.76-8.01-42.7
		c-0.52-1.33-0.44-2.69-0.19-4.06c3.78-20.03,13.69-36.25,30.1-48.42C224.29,16.33,225.67,15.17,227.52,15.02z"/>
	<path class="st6" d="M36.04,308.31c-2.24-0.1-4.48-0.21-6.71-0.31c-1.79-2.02-1.2-4.5-1.2-6.81c-0.04-44.93-0.03-89.85-0.03-134.78
		c0-27.33,0-54.66,0-81.99c0-1.25,0.03-2.5-0.02-3.74c-0.14-3.89-0.5-4.21-4.33-4.42c-2.19-0.12-4.54,0.49-6.43-1.23
		c2.94-1.54,6.1-0.53,9.15-0.68c2.01-0.09,3.04-0.57,2.88-2.77c-0.23-3.24,1.94-4.6,4.64-4.69c6.21-0.21,12.43-0.07,19.52-0.07
		c-2.82,2.3-2.44,4.82-2.44,7.28c0.01,76.19,0,152.38,0,228.56c0,4.78,0,4.79,4.93,4.79c48.09,0.01,96.17,0.01,144.26,0.01
		c0.2,0.54,0.05,0.95-0.45,1.25c-1.75,0.89-3.65,0.71-5.51,0.71c-50.83,0.02-101.66,0.02-152.48,0
		C39.82,309.42,37.76,309.68,36.04,308.31z"/>
	<path class="st7" d="M227.52,15.02c-6.92,5.11-13.57,10.5-18.88,17.39c-8.33,10.8-13.53,22.86-15.22,36.42
		c-0.04,0.35-0.29,0.68-0.44,1.02c-3.5-2.18-7.32-2.94-11.42-2.93c-35.47,0.04-70.93,0.02-106.4,0.02c-1.36,0-2.73,0-4.7,0
		c3.76-4.79,8.12-8.23,12.35-11.73c28.24-23.35,60.59-37.21,96.99-41.41c15.44-1.78,30.91-1.42,46.32,0.71
		C226.61,14.57,227.06,14.84,227.52,15.02z"/>
	<path class="st8" d="M200.26,307.95c-0.01-0.16-0.01-0.32-0.02-0.48c1.34-1.37,0.72-3.09,0.72-4.64
		c0.04-63.43,0.03-126.86,0.04-190.28c5.81,10.23,13.3,18.99,22.7,26.09c0.49,2.1,0.26,4.23,0.26,6.34
		c0.01,51.7,0,103.4,0.01,155.09c0,1,0.04,2,0.04,3c-0.02,2.21,1.1,3.15,3.24,3.14c1.37-0.01,2.75,0.02,4.12,0.02
		c36.09,0,72.18-0.01,108.27,0.03c2.31,0,4.79-0.57,6.82,1.2c-0.24,0.24-0.48,0.48-0.72,0.72c-1.41,0.9-2.97,1.23-4.63,1.23
		c-33.63-0.04-67.27,0.15-100.9-0.1c-6.76,0.11-13.53,0.15-20.3-0.01c-4.28,0.1-8.56,0.12-12.84-0.01
		C204.74,309.14,202.18,310.11,200.26,307.95z"/>
	<path class="st9" d="M17.31,75.03c3.12,0,6.25,0.07,9.36-0.02c1.9-0.05,2.81,0.63,2.65,2.6c-0.08,0.99-0.01,2-0.01,3
		c0,75.8,0.01,151.6,0.01,227.39c-3.12,0.03-6.24,0.09-9.36,0.07c-3.19-0.02-4.84-1.64-4.81-4.88c0.01-1,0-2,0-3
		c0-70.41,0-140.83,0-211.24c0-1.62-0.06-3.24-0.1-4.86C15.49,80.99,13.87,77.38,17.31,75.03z"/>
	<path class="st6" d="M326.76,122.32c9.69-13.43,14.49-28.45,14.56-45c1.75,5.02,5.71,8.56,8.68,12.74
		c9.62,13.56,17.31,28.08,22.88,43.75c4.11,11.58,7.44,23.35,8.84,35.59c-5.02-4.92-10.04-9.83-15.06-14.75
		c-1.34-1.45-2.63-2.95-4.04-4.33c-3.62-3.55-5.78-3.75-10.17-1.06c-1.34-0.2-2.11-1.23-2.98-2.09
		c-6.94-6.91-13.86-13.82-20.76-20.77C327.61,125.29,326.17,124.27,326.76,122.32z"/>
	<path class="st10" d="M84.98,134.18c-1.75,0-3.52,0.2-5.23-0.04c-3.25-0.46-5.16,0.66-5.97,3.93c-0.36,1.46-1.19,2.42,0.96,3.42
		c1.82,0.84,1.12,3.15,0.88,4.8c-0.23,1.57-1.59,2.12-3.1,2.12c-3.12,0.01-6.24,0.03-9.36-0.01c-2.07-0.03-3.28-0.95-3.18-3.21
		c0.08-1.99-0.34-4.3,2.74-4.24c2.28,0.05,2.49-1.81,3.08-3.2c5.08-11.92,10.13-23.86,15.13-35.81c0.8-1.91,1.51-3.82,3.94-3.93
		c2.64-0.12,3.57,1.87,4.41,3.88c5.09,12.05,10.18,24.1,15.3,36.15c0.56,1.32,0.76,2.99,2.85,2.9c3.01-0.12,2.87,2.04,2.88,4.12
		c0.02,2.41-1.27,3.36-3.51,3.36c-2.99,0-5.99,0-8.98-0.01c-1.49,0-2.9-0.47-3.14-2.06c-0.25-1.65-0.91-3.77,0.8-4.86
		c1.38-0.88,2.2-1.45,1.14-3c-1.15-1.67-0.79-4.66-4.17-4.35C89.99,134.36,87.48,134.18,84.98,134.18z"/>
	<path class="st11" d="M144.88,169.64c-7.1,0-14.2-0.12-21.29,0.06c-2.95,0.07-4.11-1.12-4.09-3.89c0.02-2.72,1.53-3.68,4.07-3.68
		c14.2,0.02,28.39,0.04,42.59-0.01c2.83-0.01,4.09,1.14,4.04,4.02c-0.05,2.81-1.44,3.57-4.03,3.53
		C159.08,169.57,151.98,169.64,144.88,169.64z"/>
	<path class="st11" d="M144.79,234.09c-7,0-14-0.09-20.99,0.05c-2.8,0.05-4.29-0.87-4.3-3.77c-0.01-2.9,1.49-3.83,4.28-3.82
		c13.99,0.08,27.99,0.07,41.98,0.01c2.87-0.01,4.5,0.79,4.45,4.01c-0.05,3.16-1.84,3.59-4.43,3.55
		C158.79,234.03,151.79,234.09,144.79,234.09z"/>
	<path class="st11" d="M144.89,140.93c7.12,0,14.24,0.07,21.36-0.04c2.66-0.04,3.94,0.88,3.95,3.64c0.01,2.66-1.08,3.92-3.78,3.91
		c-14.37-0.03-28.74-0.04-43.1,0.01c-2.79,0.01-3.84-1.36-3.8-3.91c0.04-2.62,1.29-3.71,4.01-3.66
		C130.64,141.01,137.77,140.93,144.89,140.93z"/>
	<path class="st12" d="M144.57,212.84c-6.87,0-13.74-0.03-20.61,0.02c-2.6,0.02-4.41-0.65-4.47-3.68c-0.06-3.16,1.59-3.91,4.5-3.89
		c13.99,0.11,27.97,0.09,41.96,0.01c2.71-0.02,4.25,0.66,4.27,3.71c0.01,3.09-1.7,3.83-4.29,3.83
		C158.8,212.83,151.69,212.84,144.57,212.84z"/>
	<path class="st10" d="M145.13,183.76c6.99,0,13.99,0.07,20.98-0.03c2.85-0.04,4.15,1.05,4.09,3.95c-0.06,2.79-1.5,3.61-4.07,3.6
		c-14.24-0.05-28.47-0.07-42.71,0.01c-2.77,0.02-3.9-1.22-3.9-3.78c0-2.55,1.09-3.84,3.88-3.79
		C130.64,183.84,137.89,183.76,145.13,183.76z"/>
	<path class="st11" d="M144.39,255.69c-6.87,0-13.74-0.08-20.61,0.04c-2.79,0.05-4.29-0.91-4.28-3.8c0-2.88,1.46-3.81,4.27-3.79
		c13.99,0.1,27.97,0.09,41.96,0.01c2.87-0.02,4.54,0.72,4.46,3.96c-0.07,3.13-1.87,3.63-4.46,3.6
		C158.63,255.64,151.51,255.69,144.39,255.69z"/>
	<path class="st10" d="M85.19,191.26c-7.1,0-14.2-0.09-21.3,0.04c-2.91,0.05-3.99-1.02-3.96-3.94c0.02-2.83,1.22-3.65,3.87-3.63
		c14.2,0.07,28.4,0.08,42.6-0.01c2.89-0.02,4.01,0.99,3.97,3.92c-0.03,2.82-1.24,3.68-3.88,3.65
		C99.39,191.19,92.29,191.25,85.19,191.26z"/>
	<path class="st13" d="M144.79,126.8c-6.99,0-13.99-0.09-20.98,0.05c-2.8,0.06-4.29-0.86-4.3-3.75c-0.01-2.87,1.44-3.85,4.25-3.83
		c14.11,0.09,28.22,0.08,42.34,0.01c2.83-0.01,4.15,1.05,4.1,3.96c-0.05,2.8-1.47,3.62-4.06,3.59
		C159.03,126.75,151.91,126.8,144.79,126.8z"/>
	<path class="st12" d="M144.77,105.23c-7.12,0-14.24-0.09-21.36,0.05c-2.78,0.06-3.91-1.11-3.87-3.71c0.03-2.56,1.23-3.86,3.92-3.85
		c14.24,0.04,28.48,0.02,42.72,0.02c2.74,0,4.08,1.14,4.05,4.08c-0.03,2.99-1.64,3.46-4.1,3.44
		C159.01,105.19,151.89,105.23,144.77,105.23z"/>
	<path class="st12" d="M144.79,277.28c-6.87,0-13.74-0.06-20.61,0.03c-2.81,0.04-4.61-0.76-4.67-3.91
		c-0.06-3.34,1.94-3.68,4.67-3.67c13.86,0.09,27.73,0.06,41.59,0.02c2.47-0.01,4.43,0.12,4.46,3.45c0.02,3.26-1.68,4.09-4.46,4.08
		C158.78,277.27,151.79,277.28,144.79,277.28z"/>
	<path class="st11" d="M85.17,255.69c-7.12,0-14.24-0.06-21.36,0.03c-2.65,0.03-3.85-0.84-3.88-3.66c-0.04-2.95,1.09-3.93,3.99-3.91
		c14.12,0.1,28.23,0.09,42.35,0.01c2.77-0.02,4.13,0.72,4.12,3.79c-0.01,3.12-1.56,3.8-4.22,3.77
		C99.16,255.64,92.17,255.69,85.17,255.69z"/>
	<path class="st11" d="M85.43,234.09c-7.24,0-14.47-0.07-21.71,0.04c-2.71,0.04-3.79-0.93-3.79-3.71c0-2.74,1.08-3.85,3.76-3.84
		c14.35,0.04,28.7,0.03,43.05,0.01c2.79,0,3.61,1.43,3.63,4.02c0.01,2.6-1.07,3.54-3.6,3.51C99.65,234.03,92.54,234.08,85.43,234.09
		z"/>
	<path class="st11" d="M84.79,212.84c-6.86,0-13.72-0.04-20.57,0.02c-2.63,0.02-4.23-0.65-4.29-3.76c-0.06-3.07,1.31-3.81,4.07-3.8
		c14.09,0.08,28.18,0.08,42.27,0c2.73-0.01,4.17,0.67,4.11,3.77c-0.06,3.08-1.62,3.81-4.27,3.79
		C99,212.81,91.89,212.84,84.79,212.84z"/>
	<path class="st11" d="M84.78,169.64c-6.86,0-13.72-0.05-20.57,0.03c-2.57,0.03-4.34-0.3-4.28-3.57c0.05-2.94,1.29-3.99,4.08-3.98
		c14.09,0.04,28.18,0.04,42.27,0c2.77-0.01,4.05,1.01,4.1,3.96c0.06,3.26-1.7,3.61-4.27,3.58
		C98.99,169.59,91.89,169.64,84.78,169.64z"/>
	<path class="st12" d="M84.95,277.28c-6.85,0-13.7-0.03-20.55,0.01c-3,0.02-4.7-0.97-4.46-4.38c0.15-2.2,0.98-3.15,3.17-3.14
		c14.7,0.03,29.39,0.03,44.09,0c2.51-0.01,3.08,1.31,3.16,3.54c0.1,2.76-1.19,3.93-3.74,3.95c-5.73,0.04-11.46,0.02-17.19,0.03
		C87.94,277.28,86.45,277.28,84.95,277.28z"/>
	<path class="st6" d="M346.44,307.47c-39.7-0.01-79.4-0.08-119.09,0.07c-3.92,0.02-4.7-1.14-4.69-4.82
		c0.12-53.18,0.08-106.36,0.11-159.54c0-1.53-0.66-3.29,0.92-4.54c10.09,6.65,20.9,11.42,33.02,13
		c20.09,2.61,38.28-2.06,54.67-13.91c1.4-0.26,2.38,0.49,3.29,1.39c6.71,6.67,13.44,13.31,20.02,20.1c0.99,1.02,2.81,2.45-0.01,3.65
		c-11.57,0.72-23.14,0.13-34.71,0.32c-1.62,0.03-3.24-0.06-4.85,0.17c-1.5,0.22-2.62,0.81-2.64,2.55c-0.02,1.87,1.31,2.22,2.75,2.34
		c2.73,0.22,5.47,0.1,8.21,0.1c9.09,0.02,18.17-0.01,27.26,0.01c1.86,0,3.76-0.15,5.37,1.1c0.93,1.61,1.9,3.15,3.25,4.5
		c13.63,13.56,27.2,27.18,40.83,40.75c0.82,0.82,1.39,2.2,2.97,1.89c-1.77,9.75-3.16,19.57-5.89,29.13
		c-5.95,20.78-15,40.04-27.71,57.55C348.5,304.68,347.47,306.07,346.44,307.47z"/>
	<path class="st7" d="M325.78,330.23c-22.33,21.23-48.37,36.15-78.21,43.51c-63.59,15.68-120.44,1.94-170.13-40.89
		c-0.94-0.81-1.81-1.72-2.71-2.58c1.56-2.03,3.83-1.5,5.86-1.51c17.34-0.06,34.69-0.03,52.03-0.03c22.46,0,44.92,0,67.38,0.01
		c1.99,0,4-0.14,5.95,0.38c1.95,0.66,1.93,2.36,2.02,3.97c0.11,2.11-0.12,4.23,0.13,6.32c0.39,3.33,2.22,4.25,5.17,2.58
		c2.05-1.16,3.94-2.58,5.91-3.88c3.01-2.17,5.95-1.93,8.91,0.18c1.81,1.29,3.64,2.58,5.58,3.65c2.76,1.52,4.47,0.7,5.09-2.39
		c0.41-2.07,0.12-4.2,0.24-6.29c0.09-1.58-0.04-3.3,1.87-4.09c1.71-0.54,3.47-0.44,5.21-0.45c24.47-0.01,48.95-0.03,73.42,0.02
		C321.66,328.76,324.06,328.16,325.78,330.23z"/>
	<path class="st14" d="M206.9,330.09c-42.43,0.01-84.87,0.02-127.3,0.04c-1.62,0-3.24,0.08-4.86,0.13
		c-18.47-0.68-36.94,0.53-55.41,0.22c-4.21-0.07-8.46,0.6-12.63-0.45c10.97,0,21.94,0,33.8,0c-4.63-3.51-4.61-7.89-4.45-12.37
		c0.11-3.11,0.01-6.23,0-9.35c6.36-0.07,12.71-0.19,19.07-0.19c46.77-0.02,93.53-0.01,140.3-0.02c1.62,0,3.23-0.1,4.85-0.16
		c2.25,0.12,4.49,0.24,6.74,0.37c0.88,0.84,1.1,1.94,1.12,3.08c0.13,5.23,0.16,10.46-0.01,15.68
		C208.07,328.2,207.88,329.32,206.9,330.09z"/>
	<path class="st14" d="M325.78,330.23c-28.59-0.04-57.18-0.08-85.78-0.12c-0.7-0.61-1.02-1.43-1.06-2.31
		c-0.28-5.84-0.3-11.68,0.01-17.51c0.04-0.75,0.38-1.44,0.9-2.01c6.73-0.05,13.46-0.16,20.19-0.15c28.56,0.01,57.11,0.05,85.67,0.07
		C339.83,316.22,333.21,323.6,325.78,330.23z"/>
	<path class="st10" d="M336.03,162.04c-8.02-8.3-15.86-16.79-24.65-24.31c2.91-2.44,5.82-4.89,8.73-7.33
		c9.21,7.87,17.81,16.35,25.59,25.64c-2.26,2.74-4.74,5.25-7.5,7.48C336.87,163.92,336.36,163.12,336.03,162.04z"/>
	<path class="st15" d="M345.7,156.04c-8.82-8.26-17.41-16.75-25.59-25.64c2.22-2.7,4.44-5.39,6.66-8.08
		c0.17,1.67,1.54,2.51,2.57,3.55c7.69,7.81,15.41,15.6,23.12,23.4C350.47,151.79,348.18,154.01,345.7,156.04z"/>
	<path class="st16" d="M336.03,162.04c0.72,0.49,1.44,0.99,2.17,1.48c-1.27,1.78-2.19,3.68-2.12,5.94
		c-13.84,0.04-27.68,0.06-41.52,0.16c-2.46,0.02-3.67-0.74-3.66-3.42c0.01-2.83,1.12-4.13,3.99-4.12
		c10.47,0.04,20.95,0.02,31.42,0.01C329.55,162.09,332.79,162.06,336.03,162.04z"/>
	<path class="st17" d="M267.3,20.25c30.16-0.64,58.18,24.19,57.97,58.33c-0.2,32.17-25.85,58.07-58.68,57.81
		c-31.91-0.25-57.86-25.32-57.82-58.35C208.81,44.91,235.79,19.49,267.3,20.25z"/>
	<path class="st2" d="M239.86,308.27c0.05,7.28,0.1,14.56,0.15,21.84c-0.03,3.1,0.07,6.22-0.11,9.31c-0.26,4.41-3.11,5.79-6.84,3.41
		c-1.88-1.2-3.78-2.4-5.53-3.77c-2.58-2.03-5.12-2.29-7.8-0.3c-1.1-1.06-1.13-2.46-1.14-3.82c-0.07-7.6-0.07-15.19,0-22.79
		c0.01-1.37,0.07-2.76,1.16-3.82C226.44,308.31,233.15,308.29,239.86,308.27z"/>
	<path class="st1" d="M219.73,308.32c0,10.15-0.01,20.29-0.01,30.44c-2.23,1.56-4.38,3.27-6.72,4.64c-3.08,1.8-5.78,0.31-5.96-3.26
		c-0.17-3.34-0.1-6.7-0.13-10.05c0.03-7.26,0.06-14.52,0.1-21.78C211.24,308.32,215.49,308.32,219.73,308.32z"/>
	<path class="st18" d="M85.16,111.46c2.07,4.85,3.8,8.96,5.59,13.04c0.67,1.52,0.53,2.09-1.37,2.24
		c-11.02,0.89-11.03,0.94-6.89-9.18C83.24,115.74,84.07,113.95,85.16,111.46z"/>
	<path class="st16" d="M256.42,277.36c-6.98,0-13.96,0.01-20.94,0c-2.7-0.01-4.58-0.81-4.48-4.08c0.07-2.32,0.85-3.44,3.29-3.43
		c14.71,0.04,29.41,0.05,44.12-0.01c2.44-0.01,3.39,1.14,3.43,3.37c0.05,2.78-1.34,4.15-4.1,4.15
		C270.63,277.36,263.52,277.36,256.42,277.36z"/>
	<path class="st16" d="M256.52,169.59c-7.22,0-14.45-0.08-21.67,0.04c-2.77,0.05-3.82-1.12-3.82-3.75c-0.01-2.7,1.29-3.81,3.91-3.8
		c14.2,0.03,28.39,0.02,42.59,0.01c2.68,0,4.35,1.07,4.27,3.94c-0.07,2.79-1.53,3.71-4.36,3.63
		C270.47,169.46,263.49,169.59,256.52,169.59z"/>
	<path class="st19" d="M256.24,234.05c-7.12,0-14.24-0.08-21.36,0.04c-2.77,0.05-3.84-1.11-3.85-3.75c-0.01-2.71,1.29-3.8,3.92-3.8
		c14.37,0.03,28.73,0.04,43.1-0.01c2.6-0.01,3.71,1.34,3.73,3.64c0.03,2.41-0.93,3.97-3.8,3.92
		C270.73,233.97,263.48,234.05,256.24,234.05z"/>
	<path class="st20" d="M316.45,183.76c6.98,0,13.96,0.1,20.93-0.05c2.96-0.06,3.93,1.09,3.91,3.96c-0.02,2.85-1.26,3.62-3.88,3.61
		c-14.2-0.07-28.41-0.09-42.61,0.01c-2.95,0.02-3.94-1.09-3.92-3.97c0.02-2.85,1.27-3.64,3.89-3.6
		C302,183.83,309.23,183.76,316.45,183.76z"/>
	<path class="st16" d="M256.59,212.91c-6.99,0-13.98-0.01-20.98,0c-2.92,0.01-4.89-0.89-4.58-4.34c0.19-2.04,0.97-3.19,3.24-3.18
		c14.73,0.04,29.47,0.07,44.2-0.02c2.66-0.02,3.17,1.6,3.3,3.55c0.17,2.6-1.24,3.96-3.84,3.97c-5.12,0.03-10.24,0.01-15.36,0.02
		C260.59,212.91,258.59,212.91,256.59,212.91z"/>
	<path class="st15" d="M256.47,248.2c6.99,0,13.98,0.09,20.97-0.05c2.81-0.06,4.34,0.98,4.35,3.77c0.01,2.79-1.5,3.83-4.32,3.81
		c-13.98-0.09-27.95-0.08-41.93-0.01c-2.83,0.01-4.59-0.72-4.52-3.95c0.07-3.09,1.9-3.62,4.48-3.6
		C242.5,248.25,249.49,248.2,256.47,248.2z"/>
	<path class="st20" d="M256.24,191.26c-6.99,0-13.98-0.05-20.97,0.03c-2.73,0.03-4.26-0.88-4.25-3.84c0.02-3.05,1.73-3.71,4.38-3.7
		c14.1,0.05,28.2,0.07,42.31-0.02c2.71-0.02,4.03,1.12,4.07,3.66c0.05,2.73-1.32,3.97-4.21,3.92
		C270.47,191.17,263.35,191.26,256.24,191.26z"/>
	<path class="st15" d="M316.45,255.7c-7.12,0-14.24-0.03-21.36,0.02c-2.64,0.02-4.21-0.65-4.22-3.78c-0.01-3.09,1.37-3.79,4.12-3.77
		c14.11,0.08,28.23,0.09,42.34-0.01c2.91-0.02,4,0.98,3.97,3.92c-0.03,2.82-1.2,3.69-3.86,3.66
		C330.44,255.63,323.45,255.7,316.45,255.7z"/>
	<path class="st19" d="M316.05,234.05c-7.1,0-14.21-0.04-21.31,0.02c-2.32,0.02-3.84-0.43-3.83-3.24c0-2.71,0.82-4.29,3.79-4.29
		c14.33,0.03,28.67,0.02,43,0.01c2.75,0,3.63,1.36,3.6,4c-0.03,2.57-1,3.56-3.56,3.53C330.5,233.99,323.27,234.05,316.05,234.05z"/>
	<path class="st16" d="M315.93,212.91c-6.87,0-13.74-0.05-20.61,0.03c-2.88,0.03-4.39-0.89-4.44-4.08
		c-0.05-3.37,1.91-3.48,4.38-3.47c13.87,0.04,27.73,0.04,41.6,0c2.43-0.01,4.47,0,4.43,3.41c-0.03,3.16-1.46,4.16-4.38,4.13
		C329.92,212.85,322.93,212.91,315.93,212.91z"/>
	<path class="st16" d="M316.33,269.86c6.98,0,13.97,0.02,20.95-0.01c2.18-0.01,3.92,0.12,4.01,3.06c0.09,2.81-0.96,4.4-3.74,4.41
		c-14.34,0.05-28.68,0.06-43.02-0.01c-2.83-0.01-3.74-1.76-3.63-4.5c0.11-2.99,2-2.96,4.11-2.95
		C302.12,269.87,309.22,269.86,316.33,269.86z"/>
	<path class="st21" d="M270.74,27.84c17.78,1.22,30.97,9.91,40.13,24.91c4.42,7.25,6.89,15.35,6.92,23.76
		c0.08,19.04-7.92,34.11-23.91,44.65c-6.32,4.17-13.33,6.64-20.94,7.22c-2.2,0.71-4.23,0.03-6.08-0.99
		c-15.41-8.46-25.23-21.16-28.88-38.44c-0.42-1.99-1.19-4.26,1.36-5.63c1.96-0.6,3.97-0.42,5.96-0.43
		c16.49-0.02,32.98-0.01,49.47-0.01c1.62,0,3.25,0.06,4.86-0.24c2.48-0.46,3.62-1.96,3.54-4.48c-0.09-2.52-1.2-3.98-3.84-4.08
		c-1.37-0.05-2.75-0.07-4.12-0.07c-18.74,0-37.48,0.01-56.22-0.01c-1.99,0-4.01,0.22-5.92-0.58c-1.66-1.6,0.14-2.01,0.97-2.08
		c2.94-0.24,3.49-2.24,3.97-4.56c0.37-1.79,0.6-3.73,2.28-4.96c1.9-0.87,3.92-0.64,5.9-0.64c14.71-0.03,29.42,0.03,44.12-0.04
		c4.49-0.02,5.61-1.12,5.39-4.7c-0.17-2.76-1.73-4-4.35-4.11c-4.48-0.18-8.97-0.01-13.46-0.08c-10.46-0.17-20.93,0.4-31.38-0.3
		c-2.8-1.12-1.22-2.83-0.38-4.15c3.37-5.27,7.62-9.76,12.58-13.56C262.36,31.43,266.15,28.87,270.74,27.84z"/>
	<path class="st22" d="M270.74,27.84c-6.47,3.69-12.94,7.36-18.02,13.03c-2.84,3.16-5.47,6.44-7.52,10.16
		c-0.48,0.66-1.21,0.78-1.93,0.92c-5.59,1.05-6.87,4.03-3.9,9.1c0.25,0.43,0.51,0.84,0.56,1.34c-0.5,2.74-1.04,5.48-1.49,8.23
		c-0.22,1.32-1.13,1.37-2.15,1.45c-1.3,0.1-2.72-0.41-3.86,0.64c-0.34,1.2-1.43,1.96-1.77,3.19c-1.16,4.16,0.39,6.51,4.77,7.16
		c1.07,0.16,2.24,0.04,3.02,1.04c0.55,10.86,5.07,20.13,11.7,28.46c5.02,6.3,11.3,11.1,18.5,14.72c1.37,0.69,2.76,1.12,4.29,1.11
		c-8.33,1.84-16.39,0.19-24-2.87c-15.03-6.06-25.56-16.74-30.29-32.47c-4.95-16.44-2.4-31.83,8.07-45.46
		C237.75,33.2,252.58,26.64,270.74,27.84z"/>
	<path class="st23" d="M238.46,84.09c-1.22-0.05-2.45-0.13-3.67-0.14c-2.37-0.02-4.84-0.55-5.09-3.16c-0.28-2.89-1.7-6.62,2.74-8.08
		c21.93,0.01,43.87,0.03,65.8,0.04c5.43,0,6.2,0.68,6.23,5.44c0.03,4.54-1.37,5.79-6.56,5.8C278.09,84.03,258.27,84.06,238.46,84.09
		z"/>
	<path class="st23" d="M239.94,62.38c-4.03-1.77-3.23-5.32-2.65-8.35c0.54-2.82,3.19-3.07,5.69-2.92c0.74,0.04,1.49-0.05,2.23-0.08
		c15.22,0.02,30.45,0.04,45.67,0.07c5.44,0.01,8.03,4.06,5.84,9.13c-0.92,2.14-2.82,2.12-4.75,2.12
		c-16.6-0.02-33.19-0.01-49.79-0.01C241.43,62.34,240.69,62.37,239.94,62.38z"/>
	<path class="st23" d="M266.89,105.06c-5.24,0-10.49-0.08-15.73,0.03c-3.61,0.08-4.37-2.03-4.47-5.02c-0.1-3.15,0.31-6.12,4.18-6.18
		c10.73-0.17,21.47-0.16,32.2,0c3.6,0.05,4.2,2.76,4.17,5.84c-0.03,3.01-0.78,5.27-4.26,5.31
		C277.63,105.11,272.26,105.06,266.89,105.06z"/>
</g>
</svg>
