<?xml version="1.0" encoding="utf-8"?>
<!-- Generator: Adobe Illustrator 28.0.0, SVG Export Plug-In . SVG Version: 6.00 Build 0)  -->
<svg version="1.1" id="Слой_1" xmlns="http://www.w3.org/2000/svg" xmlns:xlink="http://www.w3.org/1999/xlink" x="0px" y="0px"
	 viewBox="0 0 384 384" style="enable-background:new 0 0 384 384;" xml:space="preserve">
<style type="text/css">
	.st0{fill:#D8E6EB;}
	.st1{fill:#FEFEFE;}
	.st2{fill:#FE3980;}
	.st3{fill:#FE397F;}
	.st4{fill:#00C7DD;}
	.st5{fill:#FEFBFC;}
	.st6{fill:#FE5F98;}
	.st7{fill:#E4EEF1;}
	.st8{fill:#FE498A;}
	.st9{fill:#FE6099;}
	.st10{fill:#FE5E97;}
	.st11{fill:#FE6EA1;}
	.st12{fill:#FE4A8A;}
	.st13{fill:#F3F7F9;}
	.st14{fill:#FEA4C5;}
	.st15{fill:#FEB2CD;}
	.st16{fill:#74D479;}
	.st17{fill:#2740B0;}
	.st18{fill:#4BCC5C;}
	.st19{fill:#FE5E94;}
	.st20{fill:#B5C3CE;}
	.st21{fill:#00C43B;}
	.st22{fill:#B6C3CE;}
	.st23{fill:#FE5E95;}
	.st24{fill:#01C43B;}
	.st25{fill:#00B2CD;}
	.st26{fill:#E577A4;}
	.st27{fill:#172A7D;}
	.st28{fill:#FCFDFD;}
	.st29{fill:#314DC9;}
</style>
<g>
	<path class="st0" d="M327.7,327.85c-12.09,11.51-25.04,21.86-39.56,30.26c-18.27,10.56-37.67,17.93-58.32,22.05
		c-7.29,1.45-14.61,2.78-22.07,3.03c-1.15,0.7-2.42,0.21-3.62,0.36c-1.79,0.19-3.63-0.43-5.38,0.39c-4.5,0-9,0-13.49,0
		c-1.7-0.82-3.5-0.19-5.24-0.39c-1.19,0-2.37,0-3.56,0c-17.72-0.07-34.56-4.49-51.03-10.51c-22.14-8.1-42.08-20.02-59.96-35.37
		c-1.9-1.63-3.74-3.33-5.3-5.27c-0.82-1.02-1.98-2.29,0.21-3.23c1.46-0.46,2.96-0.41,4.45-0.41c25.66-0.01,51.32-0.01,76.98,0
		c1.37,0,2.74,0,4.09,0.26c2.1,0.59,4.04,1.53,5.76,2.88c1.49,3.33,2.17,6.95,3.47,10.35c-0.11,1.95-1.58,3.04-2.79,4.27
		c-4.56,4.62-9.21,9.15-13.74,13.79c-2.63,2.69-2.92,4.83-1.15,6.87c1.85,2.12,5.04,2.11,7.66-0.33c4.66-4.34,9.03-8.98,13.56-13.44
		c1.23-1.21,2.31-2.66,4.15-3.07c0.57-0.07,1.11,0,1.65,0.19c8.55,3.98,14.9,2.9,21.61-3.62c1.39-1.35,2.57-3.09,4.83-3.13
		c13.06,2.3,26.18,3.28,39.46,3.19c25.33-0.16,49.49-5.45,72.75-15.28c6.68-2.82,13.11-6.12,19.41-9.69
		c1.34-0.76,2.68-2.01,4.48-1.06C328.86,323.08,327.43,325.55,327.7,327.85z"/>
	
	<path class="st2" d="M327.7,327.85c-1.57-2.16-0.23-4.67-0.84-6.94c-0.03-0.21-0.06-0.42-0.1-0.62c-0.17-13.1,0-26.2-0.1-39.3
		c-0.02-2.83,1.26-5,2.73-7.2c10.18-15.14,17.93-31.4,22.63-49.06c3.44-12.94,5.62-26.08,5.53-39.53c0.87-3.38,3.89-5.05,5.99-7.46
		c0.82-0.94,1.75-1.77,2.63-2.65c4.99-5.01,5.05-5.53,1.32-11.62c-0.4-0.66-0.64-1.35-0.45-2.13c2.86-4.07,6.7-7.21,10.23-10.65
		c0.77-0.75,1.81-1.49,2.83-0.16c2.68,7.51,2.94,15.37,3.45,23.21c0.05,0.85-0.26,1.76,0.38,2.52c0,0.75,0,1.5,0,2.25
		c-0.56,0.75-0.56,1.5,0,2.25c0,1.25,0,2.5,0,3.75c-0.62,1.75-0.62,3.5,0,5.25c0,2.5,0,5,0,7.5c-0.61,1.5-0.61,3,0,4.5
		c0,2.25,0,4.5,0,6.75c-1.89,3.62-1.46,7.68-2.04,11.53c-6.18,40.62-23.54,75.68-51.95,105.32
		C329.16,326.15,328.44,327.01,327.7,327.85z"/>
	<path class="st2" d="M89.89,29.33c18.3-11.16,37.75-19.53,58.7-24.32c8.38-1.92,16.85-3.25,25.4-4.15c0.8-0.08,1.8,0.3,2.27-0.79
		c1.5,0,3,0,4.5,0c1.44,0.81,3,0.19,4.49,0.39c1.5-0.2,3.06,0.43,4.5-0.39c1.5,0,3,0,4.5,0c1.44,0.81,3,0.19,4.49,0.39
		c1.5-0.2,3.06,0.43,4.5-0.39c1.5,0,3,0,4.5,0c4.42,1.75,9.17,1.47,13.75,2.2c26,4.16,50.18,13.08,73.29,27.65
		c-12.37,0-23.84,0-35.31,0c-7.36-1.47-14.1-4.87-21.32-6.82c-16.36-4.4-32.99-6.79-49.88-6.13c-18.52,0.73-36.62,4.16-53.92,11.08
		c-2.23,0.89-4.58,1.15-6.82,1.87c-11.5,0.08-23,0.16-34.5,0.24C91.73,30.82,90.5,31.25,89.89,29.33z"/>
	<path class="st3" d="M18.99,275.03C9.08,254.7,3.31,233.2,0.92,210.75c-0.08-0.8,0.24-1.81-0.85-2.25c0-1,0-2,0-3
		c0.47-0.5,0.47-1,0-1.5c0-0.75,0-1.5,0-2.25c0.63-2,0.63-4,0-6c0-3,0-6,0-9c0.61-1.5,0.61-3,0-4.5c0-2.25,0-4.5,0-6.75
		c1.85-4.01,1.48-8.41,2.16-12.62c2.71-16.91,7.33-33.23,14.4-48.85c1.09-0.2,1.7,0.4,2.12,1.3c2.1,10.14,2.79,20.47,4.04,30.72
		c1.72,14.09,3.38,28.19,5.05,42.29c0.31,2.59,0.81,5.2-0.55,7.68c-5.38,3.33-6.76,8.22-6.67,14.36c0.28,19.7,0.14,39.41,0.05,59.11
		C20.66,271.41,21.58,273.82,18.99,275.03z"/>
	<path class="st4" d="M379.26,149.83c-3.99,3.87-7.99,7.75-11.98,11.62c-0.38,0.04-0.81,0.05-1.07-0.19
		c-5.03-4.56-10.13-9.05-14.22-14.54c-0.16-1.72,1.04-2.72,2.07-3.76c3.83-3.89,7.75-7.69,11.56-11.6c2.36-2.42,4.93-3.2,8.04-1.64
		c3.9,2.77,6.74,6.65,10.26,9.81c0,1.75,0,3.5,0,5.25C382.74,146.79,382.21,149.42,379.26,149.83z"/>
	<path class="st5" d="M379.26,149.83c1.55-1.69,3.11-3.37,4.66-5.06c0,10.5,0,20.99,0,31.49c-1.77-3.75-1.15-7.91-2-11.83
		C380.88,159.6,380.14,154.7,379.26,149.83z"/>
	<path class="st6" d="M0.07,195.75c1.12,2,1.2,4,0,6C0.07,199.75,0.07,197.75,0.07,195.75z"/>
	<path class="st7" d="M198.75,383.93c1.58-1.44,3.51-0.46,5.25-0.75c0.24,0.17,0.33,0.33,0.24,0.5c-0.08,0.17-0.16,0.25-0.25,0.25
		C202.25,383.93,200.5,383.93,198.75,383.93z"/>
	<path class="st8" d="M383.93,189.75c-1.17-1.75-1.2-3.5,0-5.25C383.93,186.25,383.93,188,383.93,189.75z"/>
	<path class="st7" d="M180,383.18c1.74,0.29,3.67-0.69,5.25,0.75c-1.75,0-3.5,0-5.25,0c-0.25-0.17-0.33-0.33-0.25-0.5
		C179.84,383.26,179.92,383.18,180,383.18z"/>
	<path class="st9" d="M383.93,201.75c-1.19-1.5-1.1-3,0-4.5C383.93,198.75,383.93,200.25,383.93,201.75z"/>
	<path class="st10" d="M0.07,182.25c1.19,1.5,1.1,3,0,4.5C0.07,185.25,0.07,183.75,0.07,182.25z"/>
	<path class="st11" d="M203.25,0.07c-1.29,1.44-2.98,0.47-4.46,0.72c-0.26-0.15-0.36-0.31-0.28-0.47c0.08-0.17,0.16-0.25,0.25-0.25
		C200.25,0.07,201.75,0.07,203.25,0.07z"/>
	<path class="st12" d="M198.75,0.07c0,0.24,0.01,0.48,0.03,0.72c-1.52-0.2-3.2,0.63-4.53-0.72C195.75,0.07,197.25,0.07,198.75,0.07z
		"/>
	<path class="st12" d="M189.75,0.07c-1.33,1.35-3.01,0.53-4.53,0.72c-0.23-0.17-0.3-0.34-0.21-0.49c0.08-0.15,0.16-0.23,0.24-0.23
		C186.75,0.07,188.25,0.07,189.75,0.07z"/>
	<path class="st11" d="M185.25,0.07c0,0.24-0.01,0.48-0.03,0.72c-1.49-0.25-3.17,0.71-4.47-0.72
		C182.25,0.07,183.75,0.07,185.25,0.07z"/>
	<path class="st13" d="M180,383.18c0,0.25,0,0.5,0,0.75c-1.25,0-2.5,0-3.75,0c0-0.25,0-0.5,0-0.74
		C177.5,383.18,178.75,383.18,180,383.18z"/>
	<path class="st13" d="M204,383.93c0-0.25,0-0.5,0-0.75c1.25,0,2.5,0,3.75,0c0,0.25,0,0.5,0,0.74
		C206.5,383.93,205.25,383.93,204,383.93z"/>
	<path class="st14" d="M383.93,180.76c-0.95-0.75-1.12-1.5,0-2.25C383.93,179.26,383.93,180.01,383.93,180.76z"/>
	<path class="st15" d="M0.07,204c0.84,0.5,0.94,1,0,1.5C0.07,205,0.07,204.5,0.07,204z"/>
	<path class="st16" d="M59.26,330.09c-4.26-0.09-8.52-0.18-12.78-0.27c-5.88-1.17-8.79-4.18-9.79-10.12
		c-0.25-1.48-0.29-2.98-0.29-4.47c-0.01-35.41-0.03-70.83,0.01-106.24c0.01-8.11,2.74-11.98,10.11-14.74
		c3.56-0.68,7.16-0.36,10.74-0.35c10.52-0.23,21.05-0.07,31.57-0.08c1.49,0,2.99,0.06,4.22,1.09c28.09,0.03,56.18,0.07,84.27,0.09
		c17.73,0.01,35.46,0,53.19,0c9.35,0,13.35,4.05,13.37,13.49c0.02,7.74,0.03,15.48,0.04,23.22c0.19,1.79-1.21,2.65-2.23,3.67
		c-11.36,11.41-22.75,22.78-34.13,34.16c-1.43,1.43-2.89,2.79-5.07,2.94c-2.25,0.27-4.5,0.18-6.75,0.18
		c-45.23,0.01-90.46,0-135.69,0.01c-1.75,0-3.5-0.04-5.24,0.13c-2.08,0.2-3.62,1.13-3.97,3.3c-0.38,2.32,0.89,3.81,2.88,4.72
		c2.12,0.97,4.42,0.69,6.65,0.69c41.48,0.02,82.96,0.01,124.45,0.02c2.12,0,4.25-0.13,6.35,0.24c1.46,0.37,2.26,1.07,1.26,2.63
		c-0.68,1.06-1.61,1.9-2.49,2.78c-9.42,9.45-18.89,18.84-28.27,28.33c-3.89,3.62-7.59,7.35-8.71,12.86
		c-0.2,0.98-0.84,1.77-1.83,2.17c-1.42,0.39-2.74-0.1-4.06-0.5C117.8,330.06,88.53,330.07,59.26,330.09z"/>
	<path class="st0" d="M93.06,194.91c-11.99,0-23.98,0-35.97,0c-1.18-1.17-1.23-2.7-1.23-4.19c0.01-37.21-0.17-74.42,0.08-111.63
		c0.09-7.65-0.54-15.31,0.38-22.94c1.43-2.71,0.56-5.62,0.7-8.44c0.15-2.98,0.02-5.97,0.04-8.96c0.04-5.81,2.89-8.65,8.72-8.67
		c6.6-0.03,13.19-0.01,19.79-0.01c1.49,0,3,0.18,4.33-0.73c0.77,1.29,2.12,0.44,3.13,0.84c0,31.49-0.01,62.99,0,94.48
		c0,1.21-0.33,2.51,0.54,3.6c1,1.26,0.06,2.39-0.33,3.47c-1.67,4.69-3.41,9.36-5.26,13.99c-3.04,7.6-2.47,8.83,5.06,11.16
		C93.05,169.56,93.06,182.23,93.06,194.91z"/>
	<path class="st17" d="M161.35,314.82c8.92-8.99,17.84-17.98,26.75-26.98c1.66-1.67,3.24-3.41,4.86-5.12
		c2.85-4.64,6.7-8.29,11.25-11.23c13.44-13.06,26.74-26.25,39.72-39.77c0.76-0.65,1.56-1.24,2.26-1.94
		c26.51-26.49,53.01-52.99,79.5-79.49c0.52-0.52,0.96-1.14,1.43-1.71c1.05-2.65,3.23-4.36,5.2-6.25c4.34,3.6,8.71,7.17,11.56,12.19
		c-0.41,2.3-2.32,3.49-3.79,4.96c-42,42.04-84.02,84.05-126.03,126.07c-0.88,0.88-1.78,1.75-2.64,2.65
		c-4.06,4.27-4.93,8.67-2.62,13.3c2.57,5.15,7.26,7.76,12.85,7.13c1.1-0.12,2.2-0.59,3.27,0.11c0.67,2.02-1.03,2.88-2.07,3.94
		c-5.83,5.94-11.76,11.78-17.61,17.69c-4.79,4.35-8.84,9.48-14.01,13.43c-2.04,0.29-3.15-1.17-4.37-2.38
		c-4.93-4.89-9.81-9.82-14.75-14.7c-2.8-2.93-5.73-5.73-8.56-8.63C162.64,317.14,161.44,316.34,161.35,314.82z"/>
	<path class="st18" d="M119.27,66.7c5.05-2.49,8.53-1.11,10.68,4.52c6.98,18.32,13.88,36.67,20.81,55.01
		c2.76,7.31,5.55,14.62,8.27,21.95c1.66,4.48,0.51,7.64-3.13,8.95c-3.16,1.13-5.93-0.55-7.56-4.71c-1.54-3.93-3.08-7.86-4.43-11.85
		c-0.7-2.08-1.79-2.81-4.04-2.82c-5.35-0.03-10.72,0.63-16.04-0.44c-4.02-2.6-4.42-3.86-2.74-9.44c-3.66-0.16-7.25,0.06-10.81-0.13
		c-1.43-0.08-3.42,0.58-3.77-1.85c1.39-1.14,3.07-0.88,4.66-0.89c7.22-0.04,14.45,0.02,21.67-0.03c3.47-0.03,3.79-0.46,2.57-3.72
		c-4.53-12.13-9.2-24.21-13.75-36.34c-0.91-3.35-2.3-6.54-3.43-9.81C117.19,72.13,117.08,69.27,119.27,66.7z"/>
	<path class="st2" d="M328.35,57.12c19.73,19.7,34.21,42.75,43.89,68.86c0.3,0.81,0.47,1.68,0.71,2.52
		c-2.44,0.29-3.4-1.79-4.77-3.08c-4.13-3.91-6.32-3.96-10.47,0.04c-1.35,1.3-2.6,2.7-4.01,3.93c-0.91,0.79-1.8,1.86-3.27,1.09
		c-1.12-0.94-1.48-2.29-1.91-3.59c-4.46-13.65-11.27-26.12-19.16-38.03c-1.37-2.07-2.1-4.11-2.07-6.61
		c0.11-7.37-0.01-14.74,0.1-22.11C327.4,59.14,326.35,57.56,328.35,57.12z"/>
	<path class="st19" d="M127.52,29.94c8.92-4.56,18.48-7.25,28.15-9.57c14.21-3.41,28.67-5.11,43.25-4.45
		c20.63,0.93,40.65,4.97,59.66,13.35c0.33,0.15,0.59,0.44,0.89,0.67c-6.73,0.04-13.45,0.12-20.18,0.13
		c-35.76,0.01-71.53,0.01-107.29,0C130.51,30.06,129.02,29.98,127.52,29.94z"/>
	<path class="st20" d="M233.32,130.56c-15.99,0-31.99,0.01-47.98,0c-4.75,0-7.39-1.99-7.44-5.52c-0.05-3.38,2.91-5.71,7.44-5.71
		c31.99-0.02,63.97-0.02,95.96,0c4.71,0,7.39,2.13,7.37,5.64c-0.02,3.51-2.72,5.56-7.37,5.6c-0.75,0.01-1.5,0-2.25,0
		C263.81,130.56,248.57,130.56,233.32,130.56z"/>
	<path class="st20" d="M233.61,94.5c15.62,0,31.24,0,46.85,0.01c1.25,0,2.54-0.12,3.73,0.17c2.7,0.68,4.39,2.51,4.43,5.33
		c0.04,2.61-1.29,4.42-3.92,5.27c-1.48,0.48-2.95,0.46-4.44,0.46c-31.36,0.01-62.72,0.01-94.08,0c-1.12,0-2.29,0.09-3.35-0.19
		c-2.96-0.76-5.04-2.68-4.8-5.81c0.24-3.22,2.29-5.19,5.73-5.23c3.25-0.04,6.5-0.02,9.75-0.02C206.87,94.5,220.24,94.5,233.61,94.5z
		"/>
	<path class="st21" d="M106.63,125.91c1.34,1.76,3.23,0.77,4.84,0.84c3.84,0.16,7.7,0.05,12.55,0.05c-4.64,3.92-3.37,7.29-0.2,10.51
		c-5.96,0.05-11.93,0.33-17.87,0.04c-3.12-0.16-4.38,1.03-5.25,3.75c-1.2,3.77-2.75,7.43-4.12,11.15c-0.71,1.91-1.71,3.57-3.53,4.62
		c-5.89,1.86-9.27-3.74-7.15-8.54c2.89-6.55,5.15-13.38,7.67-20.09c7.11-18.62,14.2-37.24,21.33-55.84
		c0.89-2.31,1.64-4.78,4.37-5.71c-2.11,5.02,0.43,9.36,2.06,13.81c0.52,1.4,1.1,2.74,0.96,4.27c0.34,1.53-0.14,2.92-0.68,4.34
		c-4.25,11.16-8.43,22.35-12.77,33.49C108.35,123.87,108.05,125.26,106.63,125.91z"/>
	<path class="st22" d="M224.62,144.68c13.23,0,26.47-0.01,39.7,0c4.37,0,6.15,1.28,6.44,4.51c0.35,3.89-1.11,5.66-5.5,6.47
		c-1.21,0.23-2.48,0.25-3.72,0.25c-24.6,0.01-49.19,0-73.79,0.02c-1.76,0-3.46-0.18-5.18-0.57c-3.23-0.73-4.73-2.92-4.4-5.94
		c0.34-3.04,2.24-4.79,5.62-4.78C197.4,144.72,211.01,144.69,224.62,144.68z"/>
	<path class="st23" d="M328.35,57.12c-1.42,2.7-0.54,5.6-0.6,8.4c-0.15,6.1-1.26,12.54,0.32,18.2c1.56,5.6,6.05,10.36,9.08,15.59
		c5.73,9.92,10.29,20.38,13.83,31.28c-0.95,3.82-4.17,5.63-6.94,7.85c-1.72,0.27-2.69-0.96-3.79-1.92c-1.55-1.35-3.14-2.46-5.3-1.31
		c-2.15,1.14-2.79,2.97-2.45,5.28c0.11,0.72,0.27,1.46-0.08,2.18c-0.96,2.69-3.34,4.11-5.29,5.91c-0.06-30.08-0.12-60.15-0.13-90.23
		C326.99,57.83,326.03,55.41,328.35,57.12z"/>
	<path class="st24" d="M211.24,69.49c8.61,0,17.22-0.03,25.84,0.01c4.54,0.02,6.84,1.98,6.81,5.61c-0.03,3.46-2.27,5.57-6.54,5.59
		c-17.6,0.08-35.2,0.08-52.79-0.01c-4.07-0.02-6.57-2.41-6.54-5.69c0.03-3.31,2.55-5.47,6.65-5.49
		C193.52,69.45,202.38,69.49,211.24,69.49z"/>
	<path class="st25" d="M343.91,138.1c2.35-2.5,4.71-5.01,7.06-7.51c2.4-2.29,4.78-4.6,7.19-6.88c3.37-3.19,6.34-3.21,9.69-0.06
		c1.71,1.6,3.4,3.22,5.1,4.83c0.24,0.41,0.48,0.82,0.72,1.22c-3.78-0.52-6.52,1.02-9.02,3.86c-3.18,3.63-6.79,6.88-10.19,10.32
		c-0.85,0.86-1.98,1.57-1.99,3C349.1,146.24,344.46,141.49,343.91,138.1z"/>
	<path class="st20" d="M56.89,78.56c0.05,6.36,0.14,12.72,0.15,19.07c0.03,32.42,0.03,64.85,0.05,97.27
		c-3.54,0.07-7.09,0.14-10.63,0.22c-6.37,1.33-12.76,1.57-19.18,0.36c-1.67-14.81-3.3-29.61-5-44.42
		c-1.39-12.09-2.85-24.16-4.28-36.25c-0.75-0.86,0-2-0.53-2.9c-0.74-6.28-1.35-12.58-2.25-18.84c-0.91-6.35,1.83-9.72,8.26-10.65
		c4.14-0.6,8.49-0.17,12.42-2.04c5.95-1.73,12.14-1.77,18.22-2.58C55.08,77.68,56.08,77.88,56.89,78.56z"/>
	<path class="st2" d="M56.89,78.56c-6.31,0.74-12.62,1.48-18.93,2.24c-0.75,0.09-1.49,0.26-2.08-0.41
		C42,71.71,49.02,63.81,56.32,56.13c1.46,2.01,0.61,4.3,0.65,6.45C57.07,67.9,56.93,73.23,56.89,78.56z"/>
	<path class="st26" d="M17.45,111.92c0.91,0.83,0.61,1.89,0.53,2.9c-0.45-0.26-0.9-0.52-1.35-0.77
		C16.91,113.33,17.18,112.63,17.45,111.92z"/>
	<path class="st1" d="M190.89,343.62c4.64-4.59,9.29-9.17,13.93-13.76c1.68-1.02,3.54-1.05,5.42-1.05c6.85,0,13.69,0.07,20.54-0.02
		c8.27-0.1,11.74-3.68,11.83-11.92c0.09-8.21-0.28-16.42,0.2-24.63c0.42-2.19,1.8-3.8,3.31-5.31c19.77-19.8,39.57-39.58,59.36-59.37
		c1.42-1.42,2.84-2.89,5.15-2.52c3.23,1,5.78-0.08,8.02-2.45c1.87-1.98,3.75-3.97,5.84-5.73c1.21-1.01,2.56-1.94,3.34,0.51
		c0.65,4.61,0.29,9.23,0.31,13.84c0.06,11.36,0.44,22.74-0.08,34.07c-0.82,18.07-0.69,36.13-0.76,54.2c0,0.51-0.06,0.99-0.25,1.46
		c0,0-0.2-0.06-0.2-0.06c-10.01,5.54-20.15,10.8-30.9,14.84c-13.89,5.23-28.2,8.6-42.88,10.78c-12.78,1.91-25.59,1.63-38.38,1.25
		c-8.1-0.24-16.28-1.11-24.16-3.46C190.57,344.05,190.68,343.81,190.89,343.62z"/>
	<path class="st4" d="M190.89,343.62c-0.12,0.24-0.23,0.47-0.35,0.71c-1.81,1.66-3.58,3.38-5.45,4.98
		c-6.02,5.19-14.58,5.92-20.91,1.85c-3.94-5.71-3.02-14.76,2.35-20.64c1.67-1.83,2.96-4.46,6.07-4.4
		c5.05,4.97,10.09,9.95,15.16,14.9C188.73,341.97,189.54,343.13,190.89,343.62z"/>
	<path class="st25" d="M172.61,326.12c-8.66,6.38-12.03,14.54-8.42,25.04c-0.5-0.16-1.01-0.32-1.51-0.48
		c-4.03-1.31-6.57-4.13-8.08-7.99c-1.69-3.31-2.91-6.76-3.15-10.51c-0.54-0.75-0.54-1.5,0.06-2.22c1.21-6.4,4.83-11.23,9.85-15.14
		C165.11,318.59,168.86,322.35,172.61,326.12z"/>
	<path class="st27" d="M154.6,342.69c2.51,2.85,5.1,5.62,8.08,7.99c-5.56,5.51-11.11,11.03-16.69,16.52
		c-3.2,3.15-6.7,3.48-9.12,0.91c-2.43-2.58-2.08-5.56,1.13-8.8C143.52,353.76,149.06,348.23,154.6,342.69z"/>
	<path class="st28" d="M151.5,329.96c-0.02,0.74-0.04,1.48-0.06,2.22c-1.66-0.31-3.13-1-4.38-2.14
		C148.55,330.02,150.03,329.99,151.5,329.96z"/>
	<path class="st18" d="M27.27,195.48c6.38-0.96,12.79-0.36,19.18-0.36c-6.43,2.59-9,7.28-8.97,14.25c0.18,35.4,0.14,70.8,0.03,106.2
		c-0.02,6.84,2.36,11.77,8.96,14.25c-4.85,0.04-9.71,0.13-14.56,0.12c-8.25-0.01-12.58-4.36-12.61-12.72
		c-0.04-12.45,0-24.9-0.02-37.35c0-1.61-0.19-3.22-0.3-4.83c0.11-1.36,0.3-2.71,0.31-4.06c0.02-21.12,0.06-42.23-0.02-63.35
		C19.26,201.69,21.59,197.54,27.27,195.48z"/>
	<path class="st19" d="M327.06,320.97c-0.02-24.94-0.02-49.89-0.05-74.83c-0.01-10.1-0.07-20.2-0.1-30.31
		c-0.19-1.63,1.06-2.45,1.99-3.38c8.68-8.73,17.39-17.44,26.12-26.13c0.94-0.93,1.77-2.17,3.38-2.01
		c0.45,21.47-4.39,41.85-12.63,61.55c-4.44,10.61-10.01,20.58-16.56,30.02c-1.12,1.61-1.56,3.26-1.54,5.22
		c0.07,11.97,0.05,23.95,0.02,35.92C327.67,318.35,328.11,319.79,327.06,320.97z"/>
	<path class="st27" d="M358.4,184.31c-10.71,10.29-21.24,20.77-31.49,31.52c-2.99,2.89-5.99,5.78-8.98,8.68
		c-2.26,2.19-4.74,2.97-7.62,1.16c-3.61-1.72-4.49-4.6-2.33-7.79c0.84-1.25,1.97-2.25,3.03-3.31c11.91-11.91,23.87-23.77,35.7-35.77
		c3.2-3.24,8.73-5.92,8.73-10.13c0-3.99-5.64-6.47-8.57-9.83c-1.22-1.4-2.84-2.48-3.4-4.38c-3.68-3.93-7.37-7.87-11.05-11.8
		c-1.94-2.92-1.72-5.67,1.06-7.84c2.71-2.11,5.3-1.32,7.63,0.9c0.89,0.84,1.87,1.59,2.8,2.38c2.39,3.38,5.47,6.09,8.56,8.79
		c4.94,4.85,9.88,9.71,14.82,14.56c0.7,0.86,1.36,1.74,2.1,2.57c2.81,3.14,2.84,6.04-0.12,9.15
		C365.69,176.92,362.03,180.6,358.4,184.31z"/>
	<path class="st21" d="M131.7,257.31c-25.1,0-50.19,0.01-75.29-0.01c-1.6,0-3.29,0.32-4.72-0.72c-1.83-1.35-2.86-3.12-2.47-5.46
		c0.45-2.62,2.12-4.23,4.63-4.83c1.31-0.31,2.73-0.22,4.09-0.22c48.94-0.01,97.89-0.01,146.83,0c1.61,0,3.22-0.11,4.83,0.37
		c3.12,0.93,4.56,2.92,4.17,6.13c-0.37,3.09-2.24,4.59-5.29,4.71c-1.12,0.04-2.25,0.02-3.37,0.02
		C180.64,257.31,156.17,257.31,131.7,257.31z"/>
	<path class="st21" d="M131.22,232.49c-24.97,0-49.94-0.01-74.91,0.02c-2.61,0-4.97-0.26-6.4-2.88c-1.9-3.49-0.01-7.61,3.91-8.3
		c0.73-0.13,1.49-0.08,2.24-0.08c50.19,0,100.38,0.01,150.57-0.02c3.28,0,6.06,0.76,7.05,4.22c1.04,3.66-1.56,6.81-5.68,7.01
		c-2.87,0.14-5.74,0.03-8.61,0.03C176.67,232.49,153.94,232.49,131.22,232.49z"/>
	<path class="st21" d="M204.21,271.49c-3.54,3.95-7.28,7.71-11.25,11.23c-42.58-0.03-85.16-0.06-127.74-0.08
		c-3.37,0-6.75,0.11-10.11-0.04c-3.47-0.16-6.13-2.92-6.05-5.95c0.08-3.06,2.48-5.24,6.06-5.24
		C104.82,271.42,154.51,271.45,204.21,271.49z"/>
	<path class="st21" d="M65.3,307.45c-3.49,0-6.98,0.09-10.46-0.02c-3.29-0.11-5.88-2.68-5.87-5.6c0.01-2.92,2.59-5.53,5.89-5.57
		c7.1-0.09,14.2-0.12,21.29,0.01c3.51,0.06,5.72,2.42,5.71,5.58c0,3.16-2.22,5.44-5.74,5.57C72.53,307.55,68.91,307.45,65.3,307.45z
		"/>
	<path class="st24" d="M102.73,301.88c-0.03,3.06-2.8,5.69-5.85,5.55c-2.94-0.13-5.38-2.71-5.35-5.65c0.03-3.09,2.76-5.69,5.82-5.55
		C100.27,296.37,102.76,298.99,102.73,301.88z"/>
	<path class="st29" d="M343.46,154.45c4.37,4.26,8.72,8.54,13.13,12.76c2.01,1.93,0.07,2.83-0.96,3.86
		c-9.76,9.82-19.56,19.6-29.35,29.39c-5.38,5.38-10.78,10.74-16.13,16.15c-3.48,3.52-3.41,5.69,0.17,9.06
		c-1.17-0.32-1.83,0.43-2.54,1.14c-21.08,21.11-42.17,42.22-63.25,63.34c-0.26,0.26-0.46,0.59-0.69,0.89
		c-5.05,6.42-11.2,11.77-16.98,17.48c-0.44,0.44-1.05,0.64-1.71,0.48c-6.01,1.53-11.32,0.77-15.44-4.43
		c-4.14-5.22-4.2-10.77,0.01-15.92c0.63-0.77,1.4-1.42,2.11-2.13c42.9-42.9,85.8-85.8,128.69-128.71
		C341.56,156.75,342.48,155.57,343.46,154.45z"/>
	<path class="st16" d="M225.15,308.99c5.22-5.09,10.43-10.19,15.66-15.27c0.97-0.94,2.02-1.79,3.03-2.68
		c0.02,9.09,0.1,18.18,0.02,27.27c-0.06,6.96-4.55,11.56-11.4,11.62c-9.21,0.08-18.43-0.03-27.64-0.06
		C211.6,322.9,218.37,315.95,225.15,308.99z"/>
</g>
</svg>
