<?xml version="1.0" encoding="utf-8"?>
<!-- Generator: Adobe Illustrator 28.0.0, SVG Export Plug-In . SVG Version: 6.00 Build 0)  -->
<svg version="1.1" id="Слой_1" xmlns="http://www.w3.org/2000/svg" xmlns:xlink="http://www.w3.org/1999/xlink" x="0px" y="0px"
	 viewBox="0 0 381.06 383.96" style="enable-background:new 0 0 381.06 383.96;" xml:space="preserve">
<style type="text/css">
	.st0{fill:#FEFEFE;}
	.st1{fill:#D55245;}
	.st2{fill:#FDC8A2;}
	.st3{fill:#F9BC90;}
	.st4{fill:#FCB52F;}
	.st5{fill:#87B237;}
	.st6{fill:#E7594A;}
	.st7{fill:#7FA734;}
	.st8{fill:#FEA619;}
	.st9{fill:#4397D0;}
	.st10{fill:#3E8EC8;}
</style>
<g>
	
	
	
	<path class="st1" d="M263.83,186.08c-5.85,2.66-11.65,5.42-17.57,7.93c-3.52,1.49-5.46,3.75-5.08,7.69
		c-3.84,1.82-7.67,2.03-11.46-0.14c0.03-0.24,0.05-0.49,0.11-0.73c1.17-5.31,1.17-5.31-3.77-7.51c-12.17-5.41-18-18.83-13.69-31.5
		c2.44-7.17,0.16-10.39-7.39-10.4c-11.49-0.01-22.98-0.08-34.47,0.05c-2.8,0.03-3.97-0.53-3.89-3.67c0.21-8.36,0.17-16.74-0.02-25.1
		c-0.07-3.25,0.93-4.13,3.85-2.76c-1.74,1.28-2.42,2.95-2.3,5.15c0.17,2.99,0.02,5.99,0.05,8.98c0.03,4.12,0.17,4.26,3.96,2.95
		c12.38-4.28,24.66-8.85,36.66-14.13c25.34-11.16,49.4-24.49,70.71-42.37c7.54-6.33,14.89-12.9,21.22-20.52
		c1.13-1.36,2.11-3.21,4.41-2.94c0.06,11.11,0.15,22.21,0.17,33.32c0.03,19.1-0.05,38.2,0.07,57.3c0.02,2.87-0.65,3.85-3.69,3.8
		c-11.73-0.18-23.47-0.1-35.2-0.07c-6.63,0.02-9.1,3.49-6.98,9.68c0.4,1.18,0.84,2.35,1.13,3.56c1.32,5.42,1.31,5.42,7.06,5.72
		C267.9,175.98,265.83,181.02,263.83,186.08z"/>
	<path class="st2" d="M336.59,377.67c0.09-3.37,0.08-6.74,0.31-10.1c0.13-2-0.7-2.36-2.52-2.64c-17.54-2.72-27.38-13.23-28.96-30.94
		c-0.23-2.59-1.36-4.41-3.1-6.14c-6.83-6.77-13.64-13.57-20.4-20.42c-2.75-2.79-3.79-6.1-2.4-9.94c1.33-3.67,4.03-5.62,7.8-6.09
		c3.54-0.44,6.17,1.3,8.56,3.71c13.31,13.37,26.71,26.65,39.96,40.09c2.15,2.18,3.32,2.77,5.74,0.16c5.91-6.36,6.33-6.5-0.09-12.22
		c-4.84-4.31-7.3-8.3-5.18-15.25c1.76-5.77,0.83-12.23-1.23-18.09c-3.91-11.09-8.1-22.09-12.18-33.15c1.3-0.61,2.23,0.42,3.22,1.11
		c11.21,7.7,22.42,15.41,33.61,23.14c4.87,3.37,8.38,7.9,8.42,13.89c0.18,25.73,0.04,51.46,0.02,77.19c-8.83,0-17.66,0.1-26.49-0.06
		c-2.97-0.05-4.91,0.31-4.28,3.93C337.54,376.53,337.56,377.37,336.59,377.67z"/>
	<path class="st3" d="M286.6,371.93c0.03-0.24-0.02-0.53,0.09-0.73c2-3.53,1.78-6.23-2.67-7.49c-0.57-0.16-1.05-0.66-1.54-1.04
		c-2.39-1.85-5.41-3.99-5.35-6.78c0.04-1.67,4.13-2.01,6.4-2.92c3.23-1.3,6.54-2.39,9.76-3.72c1.37-0.56,2.23-0.75,2.88,0.93
		c3.65,9.43,10.28,16.34,18.64,21.75C305.41,371.93,296,371.93,286.6,371.93z"/>
	<path class="st4" d="M15.8,264.01c-0.06-7.99-0.16-15.98-0.17-23.97c-0.02-24.12,0.04-48.23-0.07-72.35
		c-0.01-2.83,0.57-3.85,3.65-3.8c11.37,0.2,22.74,0.1,34.11,0.07c7.75-0.02,10.37-3.73,7.85-11.05
		c-3.67-10.65-0.17-22.18,8.74-28.76c8.78-6.49,20.94-6.54,29.74-0.11c9,6.57,12.59,18,9.01,28.68c-2.69,8.01-0.39,11.24,8.04,11.25
		c11.24,0.01,22.49,0.08,33.73-0.05c2.76-0.03,3.95,0.45,3.89,3.63c-0.21,10.49-0.09,20.99-0.07,31.49c0,1.66,0.05,2.72-2.35,2.53
		c-24.12-1.88-42.36,15.48-41.72,39.56c0.02,0.87,0,1.74,0,2.62c-0.92,1.29-2.33,1.82-3.72,2.37
		c-22.24,8.77-45.22,14.62-68.96,17.46c-5.68,0.68-11.35,1.54-17.09,1.49C18.81,265.04,17.15,265.19,15.8,264.01z"/>
	<path class="st5" d="M15.8,120.79c-0.01-26.57-0.34-53.15,0.1-79.71c0.25-14.95,14.4-28.07,29.72-28.23
		c23.7-0.24,47.41-0.13,71.11-0.1c12.34,0.02,24.68,0.17,37.02,0.27c0.87,4.19,0.28,8.43,0.35,12.64
		c0.11,7.24-0.05,14.49,0.08,21.73c0.04,2.49-0.79,4.17-2.69,5.77c-14.7,12.32-30.67,22.75-47.38,32.1
		c-22.3,12.47-45.72,22.44-69.77,30.95c-4.94,1.75-9.94,3.33-14.98,4.8C18.15,121.36,16.93,121.77,15.8,120.79z"/>
	<path class="st6" d="M305.16,57.06c-3.86,2.66-6.23,6.74-9.48,10c-16.22,16.23-34.53,29.59-54.5,40.79
		c-22.25,12.47-45.65,22.29-69.79,30.4c-4.09,1.37-4.1,1.36-4.1-3.08c0-4,0.15-8-0.05-11.99c-0.13-2.53,0.93-3.38,3.23-3.25
		c16.08,0.03,28.73-6.29,36.25-20.8c12.98-25.04-5.38-54.8-33.6-54.86c-1.37,0-2.76-0.01-4.12,0.15c-1.59,0.19-2.3-0.3-2.3-1.99
		c0.04-9.25,0.04-18.49,0-27.74c-0.01-1.47,0.62-2.04,2.03-1.95c0.5,0.03,1,0,1.5,0c34.36,0,68.72-0.06,103.08,0.03
		c16.11,0.04,28.8,10.46,31.57,25.98C305.94,44.77,305.43,50.95,305.16,57.06z"/>
	<path class="st7" d="M15.8,120.79c10.39-2.54,20.4-6.26,30.4-10c16.7-6.24,32.96-13.46,48.77-21.71
		c20.34-10.62,39.51-23.02,57.22-37.64c1.47-1.22,1.57-2.68,1.57-4.34c-0.02-11.36-0.01-22.72-0.01-34.08
		c1.09,1.03,0.54,2.36,0.55,3.54c0.04,11.37,0.02,22.73,0.01,34.1c-0.01,7.93,3,9.97,10.58,7.6c10.2-3.19,19.29-1.12,26.69,6.74
		c7.04,7.48,8.75,18.32,4.35,27.51c-4.66,9.71-12.64,14.48-23.34,14.69c-3.14,0.06-6.12-0.89-9.09-1.93
		c-5.47-1.92-9.13,0.68-9.17,6.51c-0.07,11.74-0.1,23.48,0.03,35.22c0.03,2.77-0.45,3.95-3.63,3.86c-8.36-0.24-16.74-0.23-25.1-0.01
		c-3.02,0.08-3.42-0.91-3.21-3.62c1.63-21.35-14.77-39.71-36.07-40.56c-21.59-0.87-39.28,16.45-39.18,38.37
		c0.03,5.73,0.03,5.73-5.85,5.73c-7.62,0-15.24-0.06-22.86,0.04c-2.02,0.02-2.88-0.46-2.85-2.68
		C15.76,139.02,15.75,129.91,15.8,120.79z"/>
	<path class="st8" d="M15.8,264.01c16.69,0.01,33.02-2.85,49.28-6.29c15.47-3.27,30.31-8.56,45.11-13.98
		c2.14,11.96,7.98,21.4,18.48,27.88c3.09,1.9,5.01,2.13,5.85-1.94c0.1-0.46,0.46-0.87,0.7-1.3c0.82-0.43,1.69-0.43,2.52-0.15
		c3.92,1.32,7.95,1.57,12.04,1.48c1.12-0.02,2.22,0.14,3.13,0.91c1.04,2.66,3.12,5.43,2.88,7.97c-0.32,3.32-4.52,2.37-6.91,3.47
		c-11.83,5.43-19.11,14.48-22.33,26.96c-3.35-0.01-6.71-0.03-10.06-0.04c-0.42-6.87-0.42-6.87-7.59-6.87
		c-19.33,0-38.69-0.56-58,0.16C31.1,302.99,12.98,288.95,15.8,264.01z"/>
	<path class="st0" d="M152.91,270.61c-6.07,0.64-12,0.16-17.69-2.24c2.16-5.68,2.16-5.68-2.57-9.28
		c-9.81-7.46-12.82-21.03-7.07-31.89c5.76-10.88,18.57-15.97,30.33-12c2.37,0.8,4.69,1.88,7.2,0.65c3-1.47,3.66-4.08,3.64-7.17
		c-0.06-13.73,0.05-27.46-0.08-41.19c-0.03-2.69,0.5-3.7,3.45-3.63c8.48,0.21,16.97,0.19,25.46,0.01c2.72-0.06,3.23,0.64,2.98,3.33
		c-1.66,17.38,9.44,33.71,26.17,39.12c2.85,0.92,4.43,0.8,4.6-2.56c0.04-0.74,0.26-1.47,0.4-2.21c3.82,0.05,7.64,0.09,11.46,0.14
		c1.69,5.06,4.85,9.57,5.59,14.99c2.02,14.71-8.06,28.01-22.22,29.26c-14.79,1.31-27.02-9.44-27.8-24.44
		c-0.43-8.17-3.43-10.15-11.03-7.29c-13.04,4.9-26.09,9.79-39.13,14.69c-6.08,2.28-7.22,4.8-4.99,10.89
		C145.37,250.07,149.14,260.34,152.91,270.61z"/>
	<path class="st9" d="M141.84,328.48c-9-16.04,2.65-36.15,21.27-36.72c7.86-0.24,10.05-3.46,7.31-10.78
		c-4.8-12.84-9.55-25.7-14.46-38.51c-0.9-2.35-0.72-3.41,1.87-4.32c8.11-2.85,16.14-5.94,24.14-9.09c2.26-0.89,2.96-0.56,3.68,1.93
		c4.98,17.41,20.77,28.65,38.48,27.68c17.43-0.96,31.94-13.87,35.05-31.54c1.26-7.12,0.58-14.23-2.42-20.9
		c-0.97-2.16-0.48-2.92,1.58-3.79c8.03-3.4,15.99-6.98,23.95-10.54c1.36-0.61,2.46-1.22,3.19,0.78
		c5.8,15.79,11.63,31.56,17.45,47.33c0.79,1.86-0.54,3.05-1.46,4.29c-8.41,11.44-18.54,21.25-29.48,30.17
		c-22.21,18.11-47.38,30.9-74.26,40.48c-16.13,5.75-32.62,10.24-49.42,13.57C146.2,328.93,143.99,330.08,141.84,328.48z"/>
	<path class="st10" d="M141.84,328.48c8.9-0.97,17.56-3.19,26.18-5.43c24.53-6.36,48.19-15.09,70.5-27.22
		c21.07-11.46,39.66-26.11,55.74-43.88c3.29-3.63,6.7-7.31,8.69-11.95c6.71,17.84,13.49,35.66,20.09,53.54
		c1.29,3.5,1.46,7.27,0.91,11.1c-1.56-0.17-2.14-1.41-2.97-2.23c-5.96-5.88-11.77-11.9-17.81-17.69
		c-8.84-8.47-22.15-8.28-30.66,0.26c-8.48,8.51-8.63,21.88-0.12,30.67c6.51,6.72,13.29,13.19,20.43,20.25
		c-7.05,2.68-13.51,5.15-19.99,7.59c-21.93,8.26-43.88,16.47-65.78,24.84c-2.74,1.05-3.8,0.59-4.78-2.19
		c-3.15-8.93-6.58-17.77-9.94-26.63c-2.57-6.78-6.65-7.87-12.23-3.33C167.49,346.45,148.9,342.71,141.84,328.48z"/>
</g>
</svg>
