<?xml version="1.0" encoding="utf-8"?>
<!-- Generator: Adobe Illustrator 28.0.0, SVG Export Plug-In . SVG Version: 6.00 Build 0)  -->
<svg version="1.1" id="Слой_1" xmlns="http://www.w3.org/2000/svg" xmlns:xlink="http://www.w3.org/1999/xlink" x="0px" y="0px"
	 viewBox="0 0 335.94 288.01" style="enable-background:new 0 0 335.94 288.01;" xml:space="preserve">
<style type="text/css">
	.st0{fill:#009FC7;}
	.st1{fill:#EFC79F;}
	.st2{fill:#F9B300;}
	.st3{fill:#0A5078;}
	.st4{fill:#C70A50;}
	.st5{fill:#0082A9;}
	.st6{fill:#D1A982;}
	.st7{fill:#0182A9;}
	.st8{fill:#D1AA82;}
	.st9{fill:#EFEFEF;}
	.st10{fill:#FEFEFE;}
</style>
<g>
	<path class="st0" d="M203.96,132.11c12,0,24,0,36,0c1.52,1.65,1.15,3.72,1.17,5.67c0.13,12.77-0.19,25.54,0.21,38.31
		c-0.45,13.9-0.07,27.81-0.2,41.71c-0.02,2.23,0.14,4.47-0.26,6.68c-0.48,2.13-2.07,3.36-3.74,4.47c-3.55,2.34-6.94,4.89-10.46,7.27
		c-5.88,3.99-9.93,9.08-9.8,16.65c0.02,1.12-0.06,2.28-1.2,2.98c-1.07-0.17-1.7-0.98-2.39-1.69c-6.29-6.4-12.62-12.76-19.04-19.02
		c-2.42-2.36-3.49-4.98-3.34-8.32c0.15-3.36,0.07-6.73,0.02-10.09c-0.22-13.82-9.85-23.64-23.61-23.67
		c-13.45-0.03-26.9-0.42-40.35,0.29c-11.33-1.65-23.32,8.77-23.83,21.09c-0.37,8.96-0.44,17.96,0.01,26.92
		c0.72,14.43,14.23,22.9,24.49,21.16c20.58,0.61,41.16,0.11,61.73,0.26c5.99,0.04,11.97,0.06,17.96-0.01
		c5.2-0.06,6.14-0.81,7.74-5.75c0.57-1.15,1.39-2.13,2.3-0.44c5.34,10,14.13,16.73,22.48,23.88c0.37,7.49,0.37,7.49-7.1,7.49
		c-44.22,0-88.44-0.03-132.66,0.07c-3.14,0.01-4.17-0.53-4.15-3.98c0.16-34.6,0.1-69.21,0.06-103.81c0-1.41,0.64-3-0.63-4.26
		c-0.65-1.15-0.53-2.42-0.53-3.66c0.02-11.61-0.02-23.22,0.02-34.84c0.01-1.84-0.29-3.79,1.16-5.33c12,0,24,0,36,0
		c1.47,1.91,1.16,4.29,1.6,6.45c3.39,16.63,17.85,28.51,34.75,28.44c16.12-0.07,30.57-12.07,33.93-28.07
		C202.77,136.65,202.46,134.15,203.96,132.11z"/>
	<path class="st1" d="M143.98,129.75c-14.17-4.69-23.73-18.12-23.99-33.71c-0.67-0.78-1.05-1.7-1.08-2.72
		c-0.2-6.21-0.19-12.41,0-18.62c0.03-1.01,0.4-1.94,1.06-2.73l0.02,0.01c0.39-0.31,0.76-0.71,1.23-0.84
		c7.75-2.15,10.23-7.62,9.72-15.12c-0.19-2.73-0.13-5.49,0.03-8.24c0.44-7.32,5.41-12.62,12.67-12.74c16.22-0.28,32.46-0.28,48.68,0
		c7.26,0.12,12.25,5.42,12.67,12.74c0.19,3.36,0.04,6.74,0.07,10.11c0.08,7.24,2.01,10.11,8.65,12.8c0.82,0.33,1.59,0.71,2.26,1.29
		l0.02-0.01c0.66,0.79,1.03,1.72,1.06,2.73c0.18,6.2,0.19,12.41,0,18.61c-0.03,1.01-0.41,1.94-1.09,2.72
		c-0.27,15.59-9.84,29.05-23.99,33.72c-0.79,1.42-2.14,2-3.62,2.36c-2.41,0.6-4.85,1.02-7.35,1.02c-8.81,0-17.62,0.16-26.42-0.08
		C150.84,132.96,146.79,133.16,143.98,129.75z"/>
	<path class="st2" d="M12.05,55.79c0-10.36-0.04-20.73,0.01-31.09C12.14,10.44,22.4,0.11,36.61,0.05c15.6-0.07,31.21-0.07,46.81,0
		C97.63,0.11,107.9,10.44,108,24.69c0.05,7.74,0.08,15.48-0.01,23.22c-0.16,13.55-10.49,23.94-24.01,24.07
		c-12.11,0.11-24.22,0.08-36.33-0.02c-2.16-0.02-3.71,0.55-5.24,2.12c-6.27,6.44-12.69,12.73-19.03,19.1
		c-2.16,2.17-4.48,3.64-7.65,2.27c-3.13-1.36-3.72-3.99-3.7-7.09C12.09,77.51,12.05,66.65,12.05,55.79z"/>
	<path class="st3" d="M239.95,79.68c0-10.24-0.03-20.48,0.01-30.72c0.06-14.69,10.29-24.89,25.03-24.93
		c15.36-0.04,30.72-0.05,46.07,0c14.49,0.05,24.75,10.29,24.84,24.75c0.05,7.62,0.07,15.23-0.01,22.85
		c-0.13,13.96-10.48,24.27-24.49,24.35c-11.99,0.07-23.97,0.07-35.96-0.03c-2.18-0.02-3.69,0.64-5.2,2.19
		c-6.19,6.35-12.53,12.55-18.77,18.84c-2.24,2.26-4.59,3.93-7.93,2.43c-3.13-1.4-3.64-4.06-3.62-7.14
		C239.99,101.41,239.95,90.55,239.95,79.68z"/>
	<path class="st1" d="M84.3,186.58c-7.96,8.09-15.92,16.18-23.9,24.25c-3.68,3.73-7.4,7.43-11.12,11.12
		c-6.14,6.08-13.2,7.81-20.43,4.41c-7.16-3.38-10.83-9.23-10.82-17.31c0.04-20.35-0.01-40.7,0.05-61.04
		c0.01-2.47-0.2-3.79-3.32-4.42c-9.59-1.95-15.62-10.42-14.66-19.63c0.95-9.05,9.16-15.94,19.05-15.96
		c5.62-0.01,11.23-0.04,16.85,0.01c10.02,0.08,17.98,8.05,18.02,18.11c0.05,13.2,0.01,26.4,0.01,40.24c2.11-1.82,3.75-3.24,5.4-4.66
		c1.95-0.39,2.95,1.15,4.04,2.2c6.54,6.26,12.86,12.74,19.25,19.16C83.67,184.01,84.77,184.96,84.3,186.58z"/>
	<path class="st1" d="M276.55,161.7c9.93,9.81,19.93,19.57,29.76,29.48c2.8,2.82,6.21,4.96,8.47,8.39c5.78,8.77,3.71,19.57-5,25.61
		c-13.3,9.23-26.55,18.54-39.85,27.76c-1.45,1.01-2.53,1.71-1.54,3.82c3.9,8.33,0.38,16.9-5.86,21.66c-6.55,5-14.24,4.68-22.47-0.88
		c-1.36-0.18-2.14-1.21-3.01-2.08c-3.71-3.69-7.51-7.29-11.07-11.12c-6.73-7.24-6.61-17.82,0.17-25.01
		c3.89-4.13,8.95-6.71,13.33-10.19c9.69-6.6,19.22-13.44,28.85-20.12c2.04-1.42,1.94-2.43,0.29-4.04
		c-5.44-5.32-10.78-10.75-16.17-16.13c-0.85-0.85-2.14-1.39-2.17-2.88c8.34-7.02,15.67-15.09,23.47-22.67
		C274.53,162.55,275.28,161.66,276.55,161.7z"/>
	<path class="st4" d="M215.98,71.97c-7.48-0.58-11.91-5.19-12-12.56c-0.05-3.74,0.05-7.48-0.03-11.22
		c-0.15-7.01-5.08-12.1-12.04-12.14c-15.96-0.09-31.91-0.09-47.87,0c-6.98,0.04-11.88,5.11-12.02,12.14
		c-0.08,3.74,0.02,7.48-0.03,11.22c-0.09,7.37-4.52,11.98-12,12.56c0-11.73,0-23.46,0.02-35.18c0.01-9.52,4.07-16.79,12.27-21.64
		c1.37-0.81,2.2-1.86,3-3.16c4.82-7.85,11.88-11.9,21.1-11.93c17.34-0.06,34.68-0.03,52.02-0.01c5.65,0.01,7.9,2.45,7.49,8.14
		c-0.29,4.02-1.29,7.89-3.23,11.42c-0.86,1.57-1.08,2.71-0.04,4.36c2.45,3.88,3.38,8.24,3.37,12.84
		C215.94,48.52,215.97,60.25,215.98,71.97z"/>
	<path class="st5" d="M276.55,161.7c-7.56,7.44-15.1,14.9-22.68,22.31c-0.94,0.92-1.62,2.31-3.27,2.23
		c-3.89-2.87-7.59-5.92-9.93-10.28c-0.99-1.32-0.7-2.85-0.7-4.32c-0.01-13.17,0-26.35,0-39.52c4.46-0.28,8.44,1.17,11.57,4.18
		c8.31,8.01,16.42,16.24,24.59,24.39C276.35,160.93,276.41,161.36,276.55,161.7z"/>
	<path class="st5" d="M84.3,186.58c-7.96-8.62-16.26-16.9-24.87-24.87c1.69-2.97,4.45-4.95,6.77-7.33
		c5.55-5.68,11.19-11.28,16.84-16.85c3.58-3.52,7.77-5.7,12.97-5.4c0,13.16,0.01,26.33,0,39.49c0,1.47,0.26,3-0.66,4.34
		C91.79,179.62,88.55,183.62,84.3,186.58z"/>
	<path class="st5" d="M203.96,132.11c0,19.77-16.33,35.88-36.35,35.86c-19.29-0.02-35.62-16.46-35.6-35.86
		c3.96-0.04,7.93-0.08,11.89-0.12c1.33,1.08,1.08,2.72,1.4,4.13c3.93,17.77,24.01,24.76,37.95,13.12c3.74-3.12,5.8-7.39,7.07-12.06
		c0.48-1.76,0.25-3.77,1.75-5.19C196.03,132.03,200,132.07,203.96,132.11z"/>
	<path class="st6" d="M192.07,131.99c-0.67,10.15-5.16,17.85-14.69,21.97c-8.78,3.79-17.1,2.41-24.53-3.43
		c-5.93-4.65-8.62-11.07-8.95-18.54c0.03-0.75,0.06-1.5,0.08-2.25c3.6,1.49,7.35,2.25,11.26,2.25c8.49-0.02,16.99-0.02,25.48,0
		c3.91,0.01,7.66-0.75,11.26-2.24C192.01,130.5,192.04,131.24,192.07,131.99z"/>
	<path class="st7" d="M240.06,229.55c-2.94,2.92-6.58,4.9-9.9,7.3c-9.89,7.18-11.03,19.37-2.49,28.19
		c4.08,4.21,8.25,8.34,12.39,12.5c-0.07,0.97-0.14,1.94-0.22,2.91c-2.59-0.09-4.27-1.82-5.93-3.45c-4.34-4.26-8.52-8.69-12.96-12.85
		c-2.53-2.37-3.21-5.73-5.15-8.37l0.02,0.01c-0.82-10.14,4.16-16.88,12.49-21.89c4.02-2.42,7.69-5.42,11.52-8.15
		C241.14,226.93,240.85,228.22,240.06,229.55z"/>
	<path class="st8" d="M119.97,71.97c0.01,8.02,0.02,16.04,0.03,24.07c-7.17-0.72-11.88-5.38-11.98-11.84
		C107.93,77.55,112.62,72.75,119.97,71.97z"/>
	<path class="st8" d="M215.97,96.03c0.01-8.02,0.02-16.04,0.03-24.06c7.32,0.78,12.04,5.62,11.95,12.24
		C227.85,90.65,223.13,95.31,215.97,96.03z"/>
	<path class="st9" d="M215.8,255.78c0.35,5.99-1.68,8.16-7.71,8.16c-24.89,0.01-49.79,0.02-74.68-0.02c-2.22,0-4.45-0.33-6.67-0.51
		c-5.5-0.09-9.86-2.75-13.27-6.69c-4.1-4.74-6.46-10.37-6.48-16.78c-0.03-7.99-0.29-16,0.06-23.98
		c0.45-10.24,4.82-18.22,14.61-22.53c1.61-0.71,3.25-1.3,5.06-0.94c14.59-1.09,29.19-0.36,43.79-0.4c0.86,0,1.71,0.31,2.57,0.5
		c10.79,2.32,18.56,11.62,18.85,22.68c0.12,4.49,0.13,9,0,13.49c-0.06,1.92,0.54,3.26,1.89,4.59c6.16,6.03,12.23,12.15,18.3,18.27
		c1.31,1.32,2.47,2.78,3.7,4.17C215.81,255.79,215.8,255.78,215.8,255.78z"/>
	<path class="st10" d="M240.06,229.55c-0.08-1.27-0.16-2.54-0.24-3.81c0.04-15.31,0.07-30.63,0.16-45.94
		c0.01-1.28-0.63-2.76,0.67-3.84c3.31,3.42,6.62,6.85,9.93,10.27c6.76,6.63,13.51,13.27,20.28,19.88c0.87,0.85,1.18,1.48-0.07,2.32
		C260.47,215.35,250.64,223,240.06,229.55z"/>
	<path class="st5" d="M126.72,192.49c-12.47,3.85-18.69,12.2-18.71,25.16c-0.01,6.87-0.01,13.74,0,20.6
		c0.02,12.98,6.19,21.26,18.71,25.16c-5.54,1.32-15.49-2.91-19.3-8.16c-3.68-5.08-5.69-10.6-5.48-17.02
		c0.27-7.85-0.01-15.72,0.08-23.58c0.12-11.03,10.51-21.95,21.45-22.65C124.57,191.93,125.74,191.69,126.72,192.49z"/>
</g>
</svg>
