<?xml version="1.0" encoding="utf-8"?>
<!-- Generator: Adobe Illustrator 28.0.0, SVG Export Plug-In . SVG Version: 6.00 Build 0)  -->
<svg version="1.1" id="Слой_1" xmlns="http://www.w3.org/2000/svg" xmlns:xlink="http://www.w3.org/1999/xlink" x="0px" y="0px"
	 viewBox="0 0 39.77 39.77" style="enable-background:new 0 0 39.77 39.77;" xml:space="preserve">
<style type="text/css">
	.st0{fill:#55607F;}
	.st1{fill:#E6EBEC;}
	.st2{fill:#FEFEFE;}
	.st3{fill:#5E6886;}
	.st4{fill:#F6F8F8;}
	.st5{fill:#646E8B;}
	.st6{fill:#F3F6F6;}
	.st7{fill:#7D869D;}
	.st8{fill:#939AAE;}
	.st9{fill:#B3B8C6;}
	.st10{fill:#9DA3B6;}
	.st11{fill:#A0A6B8;}
	.st12{fill:#B4B9C7;}
	.st13{fill:#ADB3C2;}
</style>
<g>
	<g>
		<path class="st0" d="M18.84,0.01c0.44,0,0.88,0,1.32,0c0.18,0.06,0.36,0.06,0.54,0c0.1,0,0.21,0,0.31,0
			c0.04,0.05,0.1,0.04,0.15,0.04c0.05,0,0.11,0.01,0.15-0.04c0.08,0,0.15,0,0.23,0c0.54,0.09,1.1,0.09,1.65,0.13
			c1.48,0.11,2.87,0.58,4.22,1.13c2.44,0.99,4.59,2.42,6.49,4.27c2.63,2.57,4.38,5.63,5.38,9.14c0.31,1.08,0.38,2.19,0.44,3.31
			c0,0.09-0.03,0.18,0.04,0.26c0,0.1,0,0.21,0,0.31c-0.06,0.05-0.03,0.12-0.04,0.18c0.01,0.09-0.03,0.2,0.04,0.28
			c0,0.13,0,0.26,0,0.39c-0.08,0.32-0.02,0.65-0.04,0.97c0.02,0.17-0.04,0.34,0.04,0.5c0,0.21,0,0.41,0,0.62
			c-0.09,0.54-0.09,1.09-0.13,1.63c-0.1,1.28-0.48,2.49-0.92,3.69c-0.76,2.07-1.83,3.96-3.22,5.67c-0.72,0.89-1.54,1.67-2.36,2.45
			c-0.12,0.11-0.24,0.23-0.42,0.27c-0.14-0.01-0.28-0.02-0.41-0.1c-1.66-1.04-3.47-1.78-5.19-2.69c-0.59-0.31-1.2-0.61-1.8-0.9
			c-1.03-0.5-1.55-1.34-1.61-2.46c-0.04-0.72-0.02-1.45-0.01-2.17c0-0.22,0.07-0.4,0.2-0.57c1-1.24,1.73-2.63,2.27-4.13
			c0.11-0.3,0.26-0.51,0.55-0.66c0.69-0.34,0.98-0.94,1-1.67c0.02-0.81,0.02-1.63,0-2.44c-0.01-0.46-0.13-0.9-0.44-1.26
			c-0.21-0.24-0.25-0.49-0.25-0.79c0-1.28-0.02-2.56,0.01-3.84c0.05-2.11-1.24-3.88-3.13-4.65c-0.98-0.4-2.01-0.55-3.05-0.65
			c-1.36-0.14-2.68,0.02-3.99,0.34c-1.37,0.35-2.52,1.06-3.3,2.28c-0.46,0.72-0.71,1.52-0.72,2.38c-0.01,1.37,0,2.74,0,4.11
			c0,0.31-0.05,0.57-0.26,0.82c-0.31,0.35-0.43,0.8-0.43,1.26c-0.01,0.8-0.02,1.6,0,2.41c0.01,0.61,0.2,1.14,0.71,1.53
			c0.17,0.13,0.25,0.32,0.3,0.53c0.41,1.57,1.11,3,2.07,4.31c0.17,0.23,0.25,0.47,0.25,0.75c-0.01,0.66,0,1.32,0,1.98
			c0,1.08-0.48,1.9-1.4,2.43c-1.76,1-3.55,1.95-5.33,2.92c-0.39,0.21-0.77,0.42-1.13,0.68c-0.16,0.12-0.34,0.19-0.54,0.19
			c-0.21-0.05-0.36-0.2-0.51-0.34c-3.01-2.76-5.06-6.11-6.08-10.08c-0.26-1.03-0.35-2.08-0.39-3.14c-0.06-1.59-0.04-3.17,0.08-4.75
			C0.23,15.89,0.47,15,0.73,14.1c0.83-2.77,2.18-5.25,4.1-7.41c1.63-1.84,3.5-3.39,5.7-4.54c1.66-0.87,3.39-1.52,5.22-1.91
			c0.75-0.16,1.52-0.14,2.29-0.21c0.09-0.01,0.18,0.03,0.26-0.04c0.08,0,0.15,0,0.23,0c0.04,0.05,0.1,0.04,0.15,0.04
			C18.74,0.04,18.79,0.05,18.84,0.01z"/>
		<path class="st1" d="M7.06,35.02c0.06,0.01,0.12,0.03,0.18-0.02c1.6-1.14,3.41-1.93,5.11-2.91c0.51-0.3,1.04-0.57,1.56-0.86
			c0.91-0.5,1.37-1.26,1.36-2.3c0-0.69,0.05-1.38-0.02-2.06c-0.07-0.71-0.69-1.15-1-1.75c-0.55-1.03-1.03-2.08-1.31-3.22
			c-0.04-0.17-0.12-0.3-0.26-0.41c-0.47-0.38-0.71-0.89-0.72-1.49c-0.02-0.91-0.01-1.81,0-2.72c0-0.47,0.16-0.89,0.47-1.24
			c0.15-0.17,0.2-0.33,0.2-0.56c-0.02-1.29-0.04-2.59-0.02-3.88c0.02-2.27,1.04-3.97,3.13-4.82c2.82-1.14,5.71-1.13,8.52,0.07
			c2,0.86,3.06,2.79,2.98,4.97c-0.05,1.27-0.01,2.54-0.02,3.8c0,0.16,0.07,0.26,0.16,0.37c0.36,0.4,0.52,0.89,0.51,1.42
			c0,0.82,0,1.63,0,2.45c-0.01,0.88-0.39,1.54-1.2,1.91c-0.17,0.08-0.25,0.19-0.31,0.36c-0.53,1.57-1.29,3.01-2.33,4.3
			c-0.1,0.13-0.15,0.26-0.15,0.43c0.01,0.74-0.01,1.48,0.01,2.21c0.03,1.04,0.52,1.79,1.45,2.25c1.94,0.97,3.88,1.94,5.82,2.91
			c0.44,0.22,0.88,0.44,1.26,0.76c0.08,0.07,0.16,0.13,0.28,0.1c0.1,0.2-0.06,0.28-0.18,0.38c-1.71,1.42-3.63,2.46-5.69,3.25
			c-0.73,0.28-1.49,0.5-2.26,0.69c-1.03,0.25-2.07,0.27-3.12,0.31c-0.2,0.02-0.41-0.04-0.61,0.04c-0.62,0-1.24,0-1.86,0
			c-0.17-0.08-0.36-0.02-0.54-0.04c-2.48,0.04-4.79-0.62-7-1.66c-1.5-0.71-2.91-1.56-4.18-2.64C7.15,35.31,6.96,35.24,7.06,35.02z"
			/>
	</g>
</g>
</svg>
