<?xml version="1.0" encoding="utf-8"?>
<!-- Generator: Adobe Illustrator 28.0.0, SVG Export Plug-In . SVG Version: 6.00 Build 0)  -->
<svg version="1.1" id="Слой_1" xmlns="http://www.w3.org/2000/svg" xmlns:xlink="http://www.w3.org/1999/xlink" x="0px" y="0px"
	 viewBox="0 0 384 384" style="enable-background:new 0 0 384 384;" xml:space="preserve">
<style type="text/css">
	.st0{fill:#FFFFFF;}
</style>
<g>
	<g>
		
		<path d="M0,307.5c1.87-7.31,6.63-12.59,11.86-17.73c14.61-14.36,28.89-29.06,43.55-43.38c13.52-13.21,35.53-7.16,40.13,10.94
			c2.15,8.46,0.17,16.14-5.91,22.5c-2.28,2.38-5,4.34-7.52,6.5c0.3,0.39,0.59,0.78,0.89,1.16c1.21,0.06,2.42,0.17,3.63,0.17
			c71.96,0.01,143.92,0.02,215.88,0c16.41,0,28.2-8.05,32.16-22.18c0.93-3.31,1.26-6.89,1.28-10.34
			c0.12-21.24-0.04-42.48,0.11-63.71c0.08-11.49,8.31-20.8,19.82-23.04c10.71-2.09,21.82,3.94,26.18,14.26
			c0.77,1.82,1.3,3.73,1.95,5.6c0,25.5,0,51,0,76.5c-0.23,0.69-0.57,1.37-0.66,2.09c-1.23,10.3-4.31,20.03-9.64,28.91
			c-16.11,26.8-40.01,39.92-71.18,39.92c-71.6,0.02-143.2,0.01-214.8,0.01c-1.54,0-3.08,0-4.63,0c-0.21,0.42-0.42,0.84-0.64,1.27
			c2.56,2.33,5.33,4.46,7.64,7.01c11.66,12.86,6.29,33.19-10.15,38.77c-1.16,0.39-2.3,0.85-3.45,1.28c-2.75,0-5.5,0-8.25,0
			c-7.15-1.86-12.42-6.42-17.46-11.58c-12.84-13.11-25.83-26.09-38.94-38.94C6.61,328.35,1.87,323.05,0,315.75
			C0,313,0,310.25,0,307.5z"/>
		<path d="M384,76.5c-1.89,7.29-6.62,12.6-11.85,17.74c-14.61,14.36-28.9,29.06-43.56,43.38c-13.53,13.21-35.54,7.14-40.13-10.97
			c-2.11-8.31-0.23-15.89,5.68-22.22c2.29-2.45,4.96-4.54,7.45-6.8c-0.17-0.34-0.33-0.69-0.5-1.03c-1-0.09-2-0.26-3-0.26
			c-72.47-0.01-144.94-0.05-217.41,0.02C60.66,96.37,48.01,109.27,48,129.29c-0.01,20.99,0.09,41.98-0.05,62.97
			c-0.08,12.01-8.69,21.61-20.64,23.52c-11.13,1.77-22.26-5.18-26.07-16.26c-0.35-1.03-0.83-2.01-1.25-3.02c0-25.75,0-51.5,0-77.25
			c0.24-0.83,0.58-1.64,0.69-2.48c1.26-10.04,4.24-19.55,9.42-28.22c16.1-26.97,40.05-40.22,71.39-40.22
			c71.61-0.01,143.21,0,214.82,0c1.54,0,3.08,0,4.62,0c0.25-0.46,0.49-0.92,0.74-1.38c-2.6-2.29-5.43-4.36-7.75-6.9
			c-8.87-9.68-8.47-24.57,1.33-33.28c3.4-3.02,8.13-4.55,12.25-6.76c2.75,0,5.5,0,8.25,0c7.15,1.85,12.42,6.41,17.47,11.57
			c12.84,13.12,25.83,26.1,38.94,38.95c5.24,5.13,9.97,10.43,11.84,17.73C384,71,384,73.75,384,76.5z"/>
		
	</g>
</g>
</svg>
