<?xml version="1.0" encoding="utf-8"?>
<!-- Generator: Adobe Illustrator 28.0.0, SVG Export Plug-In . SVG Version: 6.00 Build 0)  -->
<svg version="1.1" id="Слой_1" xmlns="http://www.w3.org/2000/svg" xmlns:xlink="http://www.w3.org/1999/xlink" x="0px" y="0px"
	 viewBox="0 0 384 358.31" style="enable-background:new 0 0 384 358.31;" xml:space="preserve">
<g>
	<path d="M0,124.4c2.07-8.34,5.98-15.58,14.18-19.05c4.23-1.79,9.12-2.72,13.73-2.8c17.74-0.31,35.49-0.05,53.23-0.23
		c2.27-0.02,4.95-0.89,6.71-2.29c39.88-31.74,79.66-63.61,119.44-95.48c4.04-3.23,8.22-5.68,13.69-4.02
		c5.38,1.63,8.86,5.83,9.27,11.42c0.09,1.24,0.08,2.5,0.08,3.75c0,108.96-0.01,217.93,0.04,326.89c0,4.81-0.6,9.23-4.45,12.58
		c-5.15,4.48-11.61,4.16-18.05-0.97c-15.33-12.23-30.63-24.51-45.94-36.76c-24.78-19.83-49.53-39.68-74.39-59.4
		c-1.59-1.26-4.01-2.03-6.05-2.05c-17.99-0.16-35.99-0.04-53.98-0.11c-14.23-0.05-22.85-6.63-26.89-20.27
		c-0.17-0.58-0.41-1.14-0.62-1.72C0,197.4,0,160.9,0,124.4z M204.57,39.77c-1.04,0.75-1.73,1.21-2.38,1.73
		c-32.59,26.07-65.2,52.12-97.72,78.28c-1.13,0.91-1.96,2.89-1.97,4.38c-0.11,36.62-0.11,73.24,0.01,109.87
		c0.01,1.58,0.95,3.68,2.16,4.66c32.32,26.01,64.73,51.91,97.13,77.81c0.81,0.65,1.72,1.17,2.76,1.88
		C204.57,225.38,204.57,132.83,204.57,39.77z M76.55,128.35c-17.07,0-33.94,0-50.74,0c0,34.1,0,67.88,0,101.69
		c17.04,0,33.83,0,50.74,0C76.55,196.01,76.55,162.23,76.55,128.35z"/>
	<path d="M384,190.4c-0.99,7.03-1.73,14.1-3,21.07c-6.64,36.46-23.3,67.7-49.4,93.92c-5.33,5.36-13,5.39-18.15,0.42
		c-5.07-4.9-5.35-12.77-0.13-18.14c13.34-13.76,24.28-29.14,31.98-46.71c10.04-22.92,14.42-46.87,12.7-71.89
		c-1.45-21.05-6.84-41.03-16.55-59.79c-7.05-13.62-16-25.85-26.52-37.01c-2.28-2.42-4.28-5.67-5.03-8.86
		c-1.28-5.46,1.76-10.6,6.55-13.08c5.04-2.61,11.07-1.98,15.09,2.63c7.93,9.12,16.16,18.13,22.93,28.09
		c17.17,25.27,26.61,53.44,28.91,83.95c0.07,0.98,0.42,1.93,0.63,2.9C384,175.4,384,182.9,384,190.4z"/>
	<path d="M332.69,183.75c-0.4,30.32-12.55,60.33-36.92,85.28c-5.28,5.41-12.88,5.75-18.15,0.93c-5.24-4.8-5.73-12.6-0.62-18.11
		c8.46-9.13,15.72-18.97,21.04-30.31c16.79-35.76,9.84-81.58-16.98-110.49c-1.53-1.65-3.08-3.29-4.49-5.03
		c-4.44-5.48-4-12.97,0.96-17.59c5.11-4.76,12.79-4.63,17.9,0.5c8.87,8.9,16.44,18.83,22.33,29.93
		C327.77,137.71,332.7,157.91,332.69,183.75z"/>
</g>
</svg>
